<?xml version="1.0" encoding="utf-8"?>
<!-- Generator: Adobe Illustrator 16.0.0, SVG Export Plug-In . SVG Version: 6.00 Build 0)  -->
<!DOCTYPE svg PUBLIC "-//W3C//DTD SVG 1.1//EN" "http://www.w3.org/Graphics/SVG/1.1/DTD/svg11.dtd">
<svg version="1.1" id="Layer_1" xmlns="http://www.w3.org/2000/svg" xmlns:xlink="http://www.w3.org/1999/xlink" x="0px" y="0px"
	 width="202.28px" height="242px" viewBox="0 0 202.28 242" style="enable-background:new 0 0 202.28 242;" xml:space="preserve">
<style type="text/css">
<![CDATA[
	.st0{fill:#E6E6E6;}
	.st1{fill:#4D4D4D;}
	.st2{fill:#808080;}
	.st3{fill:#B3B3B3;}
	.st4{fill:#F05A2A;}
	.st5{fill:#999999;}
	.st6{fill:#FF592A;}
	.st7{fill:#666666;}
	.st8{fill:#CCCCCC;}
	.st9{fill:#333333;}
]]>
</style>
<g id="XMLID_1_">
	<g>
		<path class="st7" d="M102.28,206.81c0,2.17-2.3,3.94-5.12,3.94h-2.23h-5h-22h-2.18c-2.81,0-5.11-1.77-5.11-3.94
			c0-2.16,2.3-3.94,5.11-3.94h31.41C99.98,202.87,102.28,204.65,102.28,206.81z"/>
		<polygon class="st9" points="61.93,241.75 56.93,241.75 62.93,210.75 65.75,210.75 67.93,210.75 		"/>
		<polygon class="st8" points="89.93,210.75 95.93,241.75 61.93,241.75 67.93,210.75 		"/>
		<polygon class="st9" points="100.93,241.75 95.93,241.75 89.93,210.75 94.93,210.75 		"/>
		<polygon class="st9" points="147.93,241.75 142.93,241.75 136.93,210.75 138.81,210.75 141.93,210.75 		"/>
		<path class="st7" d="M138.81,202.87c2.82,0,5.12,1.78,5.12,3.94c0,2.17-2.3,3.94-5.12,3.94h-1.88h-22h-5h-2.53
			c-2.81,0-5.12-1.77-5.12-3.94c0-2.16,2.31-3.94,5.12-3.94H138.81z"/>
		<polygon class="st9" points="108.93,241.75 103.93,241.75 109.93,210.75 114.93,210.75 		"/>
		<polygon class="st8" points="136.93,210.75 142.93,241.75 108.93,241.75 114.93,210.75 		"/>
		<path class="st9" d="M199.43,41.76c0,0.33-0.02,0.66-0.06,0.99h-3.52c1.07-0.43,2.06-1.05,2.94-1.84
			c0.19-0.17,0.36-0.34,0.53-0.52C199.39,40.84,199.43,41.29,199.43,41.76z"/>
		<path class="st4" d="M199.32,40.39c-0.17,0.18-0.34,0.35-0.53,0.52c-0.88,0.79-1.87,1.41-2.94,1.84h-7.6
			c-1.71-0.63-3.28-1.69-4.56-3.1c-0.03-0.04-0.06-0.07-0.09-0.11c0.45-1.57,1.35-2.94,2.56-3.96c0.23,0.38,0.51,0.75,0.82,1.09
			c1.21,1.35,2.82,2.17,4.53,2.33c1.64,0.15,3.17-0.33,4.31-1.37c0.52-0.47,0.92-1.02,1.21-1.62
			C198.2,37.17,199.02,38.69,199.32,40.39z"/>
		<path class="st7" d="M106.51,34.08v9.13c0,2.5-1.9,4.54-4.23,4.54c-2.32,0-4.23-2.04-4.23-4.54v-9.13
			c1.38,0.12,2.79,0.17,4.23,0.17S105.13,34.2,106.51,34.08z"/>
		<path class="st6" d="M102.28,34.25c-1.44,0-2.85-0.05-4.23-0.17v-1c1.38,0.12,2.79,0.17,4.23,0.17s2.85-0.05,4.23-0.17v1
			C105.13,34.2,103.72,34.25,102.28,34.25z"/>
		<path class="st4" d="M199.03,25.76c3.91,4.33,3.99,10.73,0.29,14.63c-0.3-1.7-1.12-3.22-2.29-4.38c1.08-2.21,0.65-5.14-1.28-7.28
			L199.03,25.76z"/>
		<path class="st7" d="M199.37,42.75h0.06c0,61-52.5,54.48-52.5,54.48V81.75v-0.56c33.71,0,36.46-30.67,36.66-37.22
			c0.97,3.38,4.08,5.86,7.77,5.86C195.49,49.83,198.88,46.74,199.37,42.75z"/>
		<path class="st9" d="M195.85,42.75h3.52c-0.49,3.99-3.88,7.08-8.01,7.08c-3.69,0-6.8-2.48-7.77-5.86
			c0.03-0.78,0.02-1.22,0.02-1.22h4.64c0.91,0.35,1.87,0.57,2.85,0.66c0.34,0.03,0.67,0.05,1.01,0.05
			C193.42,43.46,194.68,43.22,195.85,42.75z"/>
		<path class="st9" d="M197.03,36.01c-0.29,0.6-0.69,1.15-1.21,1.62c-1.14,1.04-2.67,1.52-4.31,1.37c-1.71-0.16-3.32-0.98-4.53-2.33
			c-0.31-0.34-0.59-0.71-0.82-1.09c1.41-1.18,3.22-1.89,5.2-1.89C193.57,33.69,195.57,34.57,197.03,36.01z"/>
		<path class="st4" d="M195.85,42.75c-1.17,0.47-2.43,0.71-3.74,0.71c-0.34,0-0.67-0.02-1.01-0.05c-0.98-0.09-1.94-0.31-2.85-0.66
			H195.85z"/>
		<path class="st9" d="M188.25,42.75h-4.64c0,0,0.01,0.44-0.02,1.22c-0.19-0.7-0.3-1.44-0.3-2.21c0-0.77,0.11-1.52,0.31-2.22
			c0.03,0.04,0.06,0.07,0.09,0.11C184.97,41.06,186.54,42.12,188.25,42.75z"/>
		<path class="st4" d="M183.93,24.5l2.97,3.28c-1.14,1.04-1.78,2.51-1.79,4.15c-0.01,1.28,0.36,2.54,1.05,3.65
			c-1.21,1.02-2.11,2.39-2.56,3.96c-1.91-2.15-2.94-4.86-2.92-7.63C180.7,29.01,181.85,26.38,183.93,24.5z"/>
		<path class="st8" d="M146.93,97.23v24.52c0,14.3-11.7,26-26,26h-40c-14.3,0-26-11.7-26-26V97.23V81.75c0-14.3,11.7-26,26-26h40
			c14.3,0,26,11.7,26,26V97.23z M114.93,105.75v-6v-4v-7v-6v-13h-23v13v6v7v4v6h6h5h6H114.93z"/>
		<path class="st7" d="M138.81,179.25c2.82,0,5.12,1.77,5.12,3.94c0,2.16-2.3,3.94-5.12,3.94H107.4c-2.81,0-5.12-1.78-5.12-3.94
			c0-2.17,2.31-3.94,5.12-3.94h29.29H138.81z"/>
		<path class="st7" d="M138.81,187.13c2.82,0,5.12,1.77,5.12,3.93c0,2.17-2.3,3.94-5.12,3.94H107.4c-2.81,0-5.12-1.77-5.12-3.94
			c0-2.16,2.31-3.93,5.12-3.93H138.81z"/>
		<path class="st7" d="M138.81,195c2.82,0,5.12,1.77,5.12,3.94c0,2.16-2.3,3.93-5.12,3.93H107.4c-2.81,0-5.12-1.77-5.12-3.93
			c0-2.17,2.31-3.94,5.12-3.94H138.81z"/>
		<path class="st7" d="M136.69,147.75c3.98,0,7.24,1.77,7.24,3.94c0,2.16-3.26,3.94-7.24,3.94H67.87c-3.98,0-7.23-1.78-7.23-3.94
			c0-2.17,3.25-3.94,7.23-3.94h13.06h40H136.69z"/>
		<path class="st7" d="M136.69,155.63c3.98,0,7.24,1.77,7.24,3.93c0,2.17-3.26,3.94-7.24,3.94H67.87c-3.98,0-7.23-1.77-7.23-3.94
			c0-2.16,3.25-3.93,7.23-3.93H136.69z"/>
		<path class="st7" d="M136.69,163.5c3.98,0,7.24,1.77,7.24,3.94c0,2.16-3.26,3.93-7.24,3.93H67.87c-3.98,0-7.23-1.77-7.23-3.93
			c0-2.17,3.25-3.94,7.23-3.94H136.69z"/>
		<path class="st7" d="M136.69,171.37c3.98,0,7.24,1.78,7.24,3.94c0,2.17-3.26,3.94-7.24,3.94H107.4H97.16H67.87
			c-3.98,0-7.23-1.77-7.23-3.94c0-2.16,3.25-3.94,7.23-3.94H136.69z"/>
		<path class="st0" d="M125.11,47.75c3.32,0,6.03,1.77,6.03,3.94c0,2.16-2.71,3.94-6.03,3.94H79.45c-3.31,0-6.02-1.78-6.02-3.94
			c0-2.17,2.71-3.94,6.02-3.94h22.83H125.11z"/>
		<path class="st4" d="M102.28,0.25c17.08,0,30.96,7.63,30.96,17c0,8.59-11.64,15.71-26.73,16.83v-1
			c14.52-1.09,25.73-7.78,25.73-15.83c0-8.82-13.44-16-29.96-16s-29.96,7.18-29.96,16c0,8.05,11.21,14.74,25.73,15.83v1
			c-15.08-1.12-26.73-8.24-26.73-16.83C71.32,7.88,85.21,0.25,102.28,0.25z"/>
		<path class="st7" d="M112.99,10.02c2.5,0,4.54,1.9,4.54,4.23s-2.04,4.23-4.54,4.23h-7.82c-0.76-0.76-1.77-1.23-2.89-1.23
			c-1.11,0-2.13,0.47-2.89,1.23h-7.82c-2.49,0-4.54-1.9-4.54-4.23s2.05-4.23,4.54-4.23H112.99z"/>
		<rect x="108.93" y="99.75" class="st7" width="6" height="6"/>
		<polygon class="st3" points="114.93,95.75 114.93,99.75 108.93,99.75 102.93,99.75 97.93,99.75 91.93,99.75 91.93,95.75 		"/>
		<path class="st0" d="M114.93,88.75v7h-23v-7h11H114.93z M111.43,92.25c0-1.52-1.23-2.75-2.75-2.75s-2.75,1.23-2.75,2.75
			s1.23,2.75,2.75,2.75S111.43,93.77,111.43,92.25z M100.43,92.25c0-1.52-1.23-2.75-2.75-2.75s-2.75,1.23-2.75,2.75
			S96.16,95,97.68,95S100.43,93.77,100.43,92.25z"/>
		<rect x="102.93" y="82.75" class="st1" width="12" height="6"/>
		<polygon class="st0" points="114.93,69.75 114.93,82.75 102.93,82.75 91.93,82.75 91.93,69.75 		"/>
		<circle class="st9" cx="108.68" cy="92.25" r="2.75"/>
		<rect x="102.93" y="99.75" class="st5" width="6" height="6"/>
		<path class="st7" d="M106.51,21.79v11.29c-1.38,0.12-2.79,0.17-4.23,0.17s-2.85-0.05-4.23-0.17V21.79c0-1.3,0.52-2.48,1.34-3.31
			h5.78C105.99,19.31,106.51,20.49,106.51,21.79z"/>
		<path class="st7" d="M105.17,18.48h-5.78c0.76-0.76,1.78-1.23,2.89-1.23C103.4,17.25,104.41,17.72,105.17,18.48z"/>
		<rect x="97.93" y="99.75" class="st9" width="5" height="6"/>
		<rect x="91.93" y="82.75" class="st7" width="11" height="6"/>
		<path class="st7" d="M97.16,179.25c2.82,0,5.12,1.77,5.12,3.94c0,2.16-2.3,3.94-5.12,3.94H65.75c-2.81,0-5.11-1.78-5.11-3.94
			c0-2.17,2.3-3.94,5.11-3.94h2.12H97.16z"/>
		<path class="st7" d="M97.16,187.13c2.82,0,5.12,1.77,5.12,3.93c0,2.17-2.3,3.94-5.12,3.94H65.75c-2.81,0-5.11-1.77-5.11-3.94
			c0-2.16,2.3-3.93,5.11-3.93H97.16z"/>
		<path class="st7" d="M97.16,195c2.82,0,5.12,1.77,5.12,3.94c0,2.16-2.3,3.93-5.12,3.93H65.75c-2.81,0-5.11-1.77-5.11-3.93
			c0-2.17,2.3-3.94,5.11-3.94H97.16z"/>
		<circle class="st4" cx="97.68" cy="92.25" r="2.75"/>
		<rect x="91.93" y="99.75" class="st2" width="6" height="6"/>
		<path class="st7" d="M54.93,81.75v15.48c0,0-51.3,6.43-51.98-53.25c0.59,3.88,3.94,6.84,7.98,6.84c3.84,0,7.05-2.67,7.87-6.26
			c0.39,7.61,3.99,36.63,36.13,36.63V81.75z"/>
		<path class="st4" d="M18.6,26.75c3.91,4.33,3.99,10.73,0.29,14.63c-0.3-1.7-1.12-3.22-2.29-4.38c1.08-2.22,0.64-5.14-1.29-7.28
			L18.6,26.75z"/>
		<path class="st9" d="M18.89,41.38c0.07,0.45,0.11,0.9,0.11,1.37c0,0.62-0.07,1.23-0.2,1.81c-0.06-1.15-0.05-1.81-0.05-1.81h-1.48
			c0.38-0.25,0.75-0.54,1.09-0.85C18.55,41.73,18.72,41.56,18.89,41.38z"/>
		<path class="st9" d="M18.75,42.75c0,0-0.01,0.66,0.05,1.81c-0.82,3.59-4.03,6.26-7.87,6.26c-4.04,0-7.39-2.96-7.98-6.84
			c0-0.01,0-0.03,0-0.04c-0.02-0.39-0.02-0.79-0.02-1.19h2.86c1.48,0.92,3.14,1.49,4.88,1.65c0.34,0.03,0.67,0.05,1,0.05
			c2.04,0,3.96-0.59,5.6-1.7H18.75z"/>
		<path class="st4" d="M18.89,41.38c-0.17,0.18-0.34,0.35-0.53,0.52c-0.34,0.31-0.71,0.6-1.09,0.85H5.79
			c-0.92-0.57-1.78-1.28-2.53-2.11c-0.03-0.04-0.06-0.07-0.09-0.11c0.44-1.56,1.35-2.93,2.55-3.95c0.24,0.38,0.51,0.75,0.82,1.09
			c1.22,1.34,2.83,2.16,4.54,2.32c1.63,0.15,3.17-0.33,4.31-1.37c0.52-0.47,0.92-1.02,1.21-1.62
			C17.77,38.16,18.59,39.68,18.89,41.38z"/>
		<path class="st4" d="M5.79,42.75h11.48c-1.64,1.11-3.56,1.7-5.6,1.7c-0.33,0-0.66-0.02-1-0.05C8.93,44.24,7.27,43.67,5.79,42.75z"
			/>
		<path class="st9" d="M16.6,37c-0.29,0.6-0.69,1.15-1.21,1.62c-1.14,1.04-2.68,1.52-4.31,1.37c-1.71-0.16-3.32-0.98-4.54-2.32
			c-0.31-0.34-0.58-0.71-0.82-1.09c1.41-1.19,3.23-1.9,5.21-1.9C13.14,34.68,15.14,35.56,16.6,37z"/>
		<path class="st4" d="M3.5,25.49l2.97,3.28c-1.15,1.04-1.78,2.51-1.79,4.16c-0.01,1.27,0.36,2.53,1.04,3.65
			c-1.2,1.02-2.11,2.39-2.55,3.95c-1.91-2.15-2.94-4.86-2.92-7.63C0.27,30,1.42,27.37,3.5,25.49z"/>
		<path class="st9" d="M5.79,42.75H2.93c0,0.4,0,0.8,0.02,1.19c-0.06-0.39-0.09-0.79-0.09-1.19c0-0.77,0.11-1.52,0.31-2.22
			c0.03,0.04,0.06,0.07,0.09,0.11C4.01,41.47,4.87,42.18,5.79,42.75z"/>
	</g>
	<g>
	</g>
</g>
<g>
</g>
<g>
</g>
<g>
</g>
<g>
</g>
<g>
</g>
<g>
</g>
<g>
</g>
<g>
</g>
<g>
</g>
<g>
</g>
<g>
</g>
<g>
</g>
<g>
</g>
<g>
</g>
<g>
</g>
</svg>
