<svg xmlns="http://www.w3.org/2000/svg" width="202.28" height="242" viewBox="0 0 202.28 242"><style type="text/css"><![CDATA[
	.st0{fill:#E6E6E6;}
	.st1{fill:#4D4D4D;}
	.st2{fill:#808080;}
	.st3{fill:#B3B3B3;}
	.st4{fill:#F05A2A;}
	.st5{fill:#999999;}
	.st6{fill:#FF592A;}
	.st7{fill:#666666;}
	.st8{fill:#CCCCCC;}
	.st9{fill:#333333;}
]]></style><g id="XMLID_1_"><path class="st7" d="M102.28 206.81c0 2.17-2.3 3.94-5.12 3.94h-31.41c-2.81 0-5.11-1.77-5.11-3.94 0-2.16 2.3-3.94 5.11-3.94h31.41c2.82 0 5.12 1.78 5.12 3.94z"/><polygon class="st9" points="61.93,241.75 56.93,241.75 62.93,210.75 65.75,210.75 67.93,210.75"/><polygon class="st8" points="89.93,210.75 95.93,241.75 61.93,241.75 67.93,210.75"/><polygon class="st9" points="100.93,241.75 95.93,241.75 89.93,210.75 94.93,210.75"/><polygon class="st9" points="147.93,241.75 142.93,241.75 136.93,210.75 138.81,210.75 141.93,210.75"/><path class="st7" d="M138.81 202.87c2.82 0 5.12 1.78 5.12 3.94 0 2.17-2.3 3.94-5.12 3.94h-31.41c-2.81 0-5.12-1.77-5.12-3.94 0-2.16 2.31-3.94 5.12-3.94h31.41z"/><polygon class="st9" points="108.93,241.75 103.93,241.75 109.93,210.75 114.93,210.75"/><polygon class="st8" points="136.93,210.75 142.93,241.75 108.93,241.75 114.93,210.75"/><path class="st9" d="M199.43 41.76c0 .33-.02.66-.06.99h-3.52c1.07-.43 2.06-1.05 2.94-1.84.19-.17.36-.34.53-.52.07.45.11.9.11 1.37z"/><path class="st4" d="M199.32 40.39c-.17.18-.34.35-.53.52-.88.79-1.87 1.41-2.94 1.84h-7.6c-1.71-.63-3.28-1.69-4.56-3.1l-.09-.11c.45-1.57 1.35-2.94 2.56-3.96.23.38.51.75.82 1.09 1.21 1.35 2.82 2.17 4.53 2.33 1.64.15 3.17-.33 4.31-1.37.52-.47.92-1.02 1.21-1.62 1.17 1.16 1.99 2.68 2.29 4.38z"/><path class="st7" d="M106.51 34.08v9.13c0 2.5-1.9 4.54-4.23 4.54-2.32 0-4.23-2.04-4.23-4.54v-9.13c1.38.12 2.79.17 4.23.17s2.85-.05 4.23-.17z"/><path class="st6" d="M102.28 34.25c-1.44 0-2.85-.05-4.23-.17v-1c1.38.12 2.79.17 4.23.17s2.85-.05 4.23-.17v1c-1.38.12-2.79.17-4.23.17z"/><path class="st4" d="M199.03 25.76c3.91 4.33 3.99 10.73.29 14.63-.3-1.7-1.12-3.22-2.29-4.38 1.08-2.21.65-5.14-1.28-7.28l3.28-2.97z"/><path class="st7" d="M199.37 42.75h.06c0 61-52.5 54.48-52.5 54.48v-16.04c33.71 0 36.46-30.67 36.66-37.22.97 3.38 4.08 5.86 7.77 5.86 4.13 0 7.52-3.09 8.01-7.08z"/><path class="st9" d="M195.85 42.75h3.52c-.49 3.99-3.88 7.08-8.01 7.08-3.69 0-6.8-2.48-7.77-5.86.03-.78.02-1.22.02-1.22h4.64c.91.35 1.87.57 2.85.66.34.03.67.05 1.01.05 1.31 0 2.57-.24 3.74-.71zM197.03 36.01c-.29.6-.69 1.15-1.21 1.62-1.14 1.04-2.67 1.52-4.31 1.37-1.71-.16-3.32-.98-4.53-2.33-.31-.34-.59-.71-.82-1.09 1.41-1.18 3.22-1.89 5.2-1.89 2.21 0 4.21.88 5.67 2.32z"/><path class="st4" d="M195.85 42.75c-1.17.47-2.43.71-3.74.71-.34 0-.67-.02-1.01-.05-.98-.09-1.94-.31-2.85-.66h7.6z"/><path class="st9" d="M188.25 42.75h-4.64s.01.44-.02 1.22c-.19-.7-.3-1.44-.3-2.21s.11-1.52.31-2.22l.09.11c1.28 1.41 2.85 2.47 4.56 3.1z"/><path class="st4" d="M183.93 24.5l2.97 3.28c-1.14 1.04-1.78 2.51-1.79 4.15-.01 1.28.36 2.54 1.05 3.65-1.21 1.02-2.11 2.39-2.56 3.96-1.91-2.15-2.94-4.86-2.92-7.63.02-2.9 1.17-5.53 3.25-7.41z"/><path class="st8" d="M146.93 97.23v24.52c0 14.3-11.7 26-26 26h-40c-14.3 0-26-11.7-26-26v-40c0-14.3 11.7-26 26-26h40c14.3 0 26 11.7 26 26v15.48zm-32 8.52v-36h-23v36h23z"/><path class="st7" d="M138.81 179.25c2.82 0 5.12 1.77 5.12 3.94 0 2.16-2.3 3.94-5.12 3.94h-31.41c-2.81 0-5.12-1.78-5.12-3.94 0-2.17 2.31-3.94 5.12-3.94h31.41zM138.81 187.13c2.82 0 5.12 1.77 5.12 3.93 0 2.17-2.3 3.94-5.12 3.94h-31.41c-2.81 0-5.12-1.77-5.12-3.94 0-2.16 2.31-3.93 5.12-3.93h31.41zM138.81 195c2.82 0 5.12 1.77 5.12 3.94 0 2.16-2.3 3.93-5.12 3.93h-31.41c-2.81 0-5.12-1.77-5.12-3.93 0-2.17 2.31-3.94 5.12-3.94h31.41zM136.69 147.75c3.98 0 7.24 1.77 7.24 3.94 0 2.16-3.26 3.94-7.24 3.94h-68.82c-3.98 0-7.23-1.78-7.23-3.94 0-2.17 3.25-3.94 7.23-3.94h68.82000000000001zM136.69 155.63c3.98 0 7.24 1.77 7.24 3.93 0 2.17-3.26 3.94-7.24 3.94h-68.82c-3.98 0-7.23-1.77-7.23-3.94 0-2.16 3.25-3.93 7.23-3.93h68.82zM136.69 163.5c3.98 0 7.24 1.77 7.24 3.94 0 2.16-3.26 3.93-7.24 3.93h-68.82c-3.98 0-7.23-1.77-7.23-3.93 0-2.17 3.25-3.94 7.23-3.94h68.82zM136.69 171.37c3.98 0 7.24 1.78 7.24 3.94 0 2.17-3.26 3.94-7.24 3.94h-68.82c-3.98 0-7.23-1.77-7.23-3.94 0-2.16 3.25-3.94 7.23-3.94h68.82z"/><path class="st0" d="M125.11 47.75c3.32 0 6.03 1.77 6.03 3.94 0 2.16-2.71 3.94-6.03 3.94h-45.66c-3.31 0-6.02-1.78-6.02-3.94 0-2.17 2.71-3.94 6.02-3.94h45.66z"/><path class="st4" d="M102.28.25c17.08 0 30.96 7.63 30.96 17 0 8.59-11.64 15.71-26.73 16.83v-1c14.52-1.09 25.73-7.78 25.73-15.83 0-8.82-13.44-16-29.96-16s-29.96 7.18-29.96 16c0 8.05 11.21 14.74 25.73 15.83v1c-15.08-1.12-26.73-8.24-26.73-16.83 0-9.37 13.89-17 30.96-17z"/><path class="st7" d="M112.99 10.02c2.5 0 4.54 1.9 4.54 4.23s-2.04 4.23-4.54 4.23h-7.82c-.76-.76-1.77-1.23-2.89-1.23-1.11 0-2.13.47-2.89 1.23h-7.82c-2.49 0-4.54-1.9-4.54-4.23s2.05-4.23 4.54-4.23h21.42z"/><rect x="108.93" y="99.75" class="st7" width="6" height="6"/><polygon class="st3" points="114.93,95.75 114.93,99.75 108.93,99.75 102.93,99.75 97.93,99.75 91.93,99.75 91.93,95.75"/><path class="st0" d="M114.93 88.75v7h-23v-7h23zm-3.5 3.5c0-1.52-1.23-2.75-2.75-2.75s-2.75 1.23-2.75 2.75 1.23 2.75 2.75 2.75 2.75-1.23 2.75-2.75zm-11 0c0-1.52-1.23-2.75-2.75-2.75s-2.75 1.23-2.75 2.75 1.23 2.75 2.75 2.75 2.75-1.23 2.75-2.75z"/><rect x="102.93" y="82.75" class="st1" width="12" height="6"/><polygon class="st0" points="114.93,69.75 114.93,82.75 102.93,82.75 91.93,82.75 91.93,69.75"/><circle class="st9" cx="108.68" cy="92.25" r="2.75"/><rect x="102.93" y="99.75" class="st5" width="6" height="6"/><path class="st7" d="M106.51 21.79v11.29c-1.38.12-2.79.17-4.23.17s-2.85-.05-4.23-.17v-11.29c0-1.3.52-2.48 1.34-3.31h5.78c.82.83 1.34 2.01 1.34 3.31zM105.17 18.48h-5.78c.76-.76 1.78-1.23 2.89-1.23 1.12 0 2.13.47 2.89 1.23z"/><rect x="97.93" y="99.75" class="st9" width="5" height="6"/><rect x="91.93" y="82.75" class="st7" width="11" height="6"/><path class="st7" d="M97.16 179.25c2.82 0 5.12 1.77 5.12 3.94 0 2.16-2.3 3.94-5.12 3.94h-31.41c-2.81 0-5.11-1.78-5.11-3.94 0-2.17 2.3-3.94 5.11-3.94h31.41zM97.16 187.13c2.82 0 5.12 1.77 5.12 3.93 0 2.17-2.3 3.94-5.12 3.94h-31.41c-2.81 0-5.11-1.77-5.11-3.94 0-2.16 2.3-3.93 5.11-3.93h31.41zM97.16 195c2.82 0 5.12 1.77 5.12 3.94 0 2.16-2.3 3.93-5.12 3.93h-31.41c-2.81 0-5.11-1.77-5.11-3.93 0-2.17 2.3-3.94 5.11-3.94h31.41z"/><circle class="st4" cx="97.68" cy="92.25" r="2.75"/><rect x="91.93" y="99.75" class="st2" width="6" height="6"/><path class="st7" d="M54.93 81.75v15.48s-51.3 6.43-51.98-53.25c.59 3.88 3.94 6.84 7.98 6.84 3.84 0 7.05-2.67 7.87-6.26.39 7.61 3.99 36.63 36.13 36.63v.56z"/><path class="st4" d="M18.6 26.75c3.91 4.33 3.99 10.73.29 14.63-.3-1.7-1.12-3.22-2.29-4.38 1.08-2.22.64-5.14-1.29-7.28l3.29-2.97z"/><path class="st9" d="M18.89 41.38c.07.45.11.9.11 1.37 0 .62-.07 1.23-.2 1.81-.06-1.15-.05-1.81-.05-1.81h-1.48c.38-.25.75-.54 1.09-.85.19-.17.36-.34.53-.52zM18.75 42.75s-.01.66.05 1.81c-.82 3.59-4.03 6.26-7.87 6.26-4.04 0-7.39-2.96-7.98-6.84v-.04c-.02-.39-.02-.79-.02-1.19h2.86c1.48.92 3.14 1.49 4.88 1.65.34.03.67.05 1 .05 2.04 0 3.96-.59 5.6-1.7h1.48z"/><path class="st4" d="M18.89 41.38c-.17.18-.34.35-.53.52-.34.31-.71.6-1.09.85h-11.48c-.92-.57-1.78-1.28-2.53-2.11l-.09-.11c.44-1.56 1.35-2.93 2.55-3.95.24.38.51.75.82 1.09 1.22 1.34 2.83 2.16 4.54 2.32 1.63.15 3.17-.33 4.31-1.37.52-.47.92-1.02 1.21-1.62 1.17 1.16 1.99 2.68 2.29 4.38zM5.79 42.75h11.48c-1.64 1.11-3.56 1.7-5.6 1.7-.33 0-.66-.02-1-.05-1.74-.16-3.4-.73-4.88-1.65z"/><path class="st9" d="M16.6 37c-.29.6-.69 1.15-1.21 1.62-1.14 1.04-2.68 1.52-4.31 1.37-1.71-.16-3.32-.98-4.54-2.32-.31-.34-.58-.71-.82-1.09 1.41-1.19 3.23-1.9 5.21-1.9 2.21 0 4.21.88 5.67 2.32z"/><path class="st4" d="M3.5 25.49l2.97 3.28c-1.15 1.04-1.78 2.51-1.79 4.16-.01 1.27.36 2.53 1.04 3.65-1.2 1.02-2.11 2.39-2.55 3.95-1.91-2.15-2.94-4.86-2.92-7.63.02-2.9 1.17-5.53 3.25-7.41z"/><path class="st9" d="M5.79 42.75h-2.86c0 .4 0 .8.02 1.19-.06-.39-.09-.79-.09-1.19 0-.77.11-1.52.31-2.22l.09.11c.75.83 1.61 1.54 2.53 2.11z"/></g></svg>