<?xml version="1.0" encoding="utf-8"?>
<!-- Generator: Adobe Illustrator 16.0.0, SVG Export Plug-In . SVG Version: 6.00 Build 0)  -->
<!DOCTYPE svg PUBLIC "-//W3C//DTD SVG 1.1//EN" "http://www.w3.org/Graphics/SVG/1.1/DTD/svg11.dtd">
<svg version="1.1" id="Layer_1" xmlns="http://www.w3.org/2000/svg" xmlns:xlink="http://www.w3.org/1999/xlink" x="0px" y="0px"
	 width="200px" height="200px" viewBox="0 0 200 200" enable-background="new 0 0 200 200" xml:space="preserve">
<g>
	<g>
		<g>
			<polygon fill="#FFFFFF" points="66.997,101.068 54.962,98.038 66.997,95.007 			"/>
			<polygon fill="#FFFFFF" points="108.954,95.006 120.99,98.036 108.955,101.067 			"/>
		</g>
	</g>
	<g>
		<g>
			<polygon fill="#FFFFFF" points="70.998,85.347 64.631,74.693 75.284,81.06 			"/>
			<polygon fill="#FFFFFF" points="104.953,110.728 111.321,121.381 100.668,115.015 			"/>
		</g>
	</g>
	<g>
		<g>
			<polygon fill="#FFFFFF" points="84.944,77.059 87.975,65.023 91.006,77.058 			"/>
			<polygon fill="#FFFFFF" points="91.007,119.015 87.977,131.051 84.945,119.017 			"/>
		</g>
	</g>
	<g>
		<g>
			<polygon fill="#FFFFFF" points="100.666,81.06 111.319,74.692 104.953,85.346 			"/>
			<polygon fill="#FFFFFF" points="75.285,115.014 64.632,121.382 70.998,110.729 			"/>
		</g>
	</g>
</g>
<path fill="#FFFFFF" d="M87.975,78.446c-10.818,0-19.591,8.771-19.591,19.591c0,10.82,8.772,19.592,19.591,19.592
	c10.82,0,19.592-8.771,19.592-19.592C107.566,87.218,98.795,78.446,87.975,78.446z M93.102,82.492c-9.344,0-16.92,7.576-16.92,16.92
	c0,6.547,3.722,12.221,9.162,15.035c-7.401-1.681-12.931-8.288-12.931-16.197c0-9.18,7.442-16.622,16.622-16.622
	c1.902,0,3.722,0.335,5.424,0.923C94.011,82.515,93.559,82.492,93.102,82.492z"/>
<g>
	<g>
		<g>
			<polygon fill="#FFFFFF" points="82.488,118.422 77.679,122.112 76.887,116.101 			"/>
			<polygon fill="#FFFFFF" points="93.463,77.652 98.271,73.963 99.063,79.973 			"/>
		</g>
	</g>
	<g>
		<g>
			<polygon fill="#FFFFFF" points="69.681,108.572 63.671,107.78 67.361,102.97 			"/>
			<polygon fill="#FFFFFF" points="106.271,87.503 112.279,88.295 108.59,93.104 			"/>
		</g>
	</g>
	<g>
		<g>
			<polygon fill="#FFFFFF" points="67.59,92.55 63.9,87.741 69.911,86.949 			"/>
			<polygon fill="#FFFFFF" points="108.36,103.525 112.05,108.334 106.04,109.126 			"/>
		</g>
	</g>
	<g>
		<g>
			<polygon fill="#FFFFFF" points="77.441,79.743 78.232,73.733 83.043,77.423 			"/>
			<polygon fill="#FFFFFF" points="98.509,116.333 97.718,122.342 92.908,118.652 			"/>
		</g>
	</g>
</g>
<g>
	<path fill="#FFFFFF" d="M142.213,81.687c1.518-0.797,3.24-1.254,5.069-1.254c0.868,0,1.709,0.112,2.521,0.305
		c-4.484-18.883-17.312-35.576-36.342-44.248c-7.497-3.417-15.304-5.276-23.064-5.743c5.519,0.848,11.015,2.442,16.345,4.872
		C126.182,44.477,138.852,62.107,142.213,81.687z"/>
	<path fill="#FFFFFF" d="M147.282,102.324c-1.743,0-3.385-0.42-4.849-1.147c-0.832,5.644-2.444,11.267-4.928,16.718
		c-14.227,31.216-51.063,44.989-82.279,30.762c-11.42-5.204-20.492-13.442-26.727-23.317c6.449,12.646,17.045,23.289,30.966,29.632
		c32.719,14.912,71.33,0.476,86.24-32.244c3.141-6.891,4.965-14.044,5.604-21.182C150.062,102.043,148.705,102.324,147.282,102.324z
		"/>
</g>
<g>
	<path fill="#FFFFFF" d="M131.724,157.731c-21.096,14.467-49.03,17.844-74.005,6.462c-13.867-6.319-24.886-16.324-32.455-28.315
		c7.831,15.357,20.698,28.281,37.604,35.985c25,11.393,52.831,8.674,74.546-4.804C134.53,164.759,132.462,161.483,131.724,157.731z"
		/>
	<path fill="#FFFFFF" d="M128.441,27.975c-9.105-4.149-18.586-6.406-28.011-6.974c6.701,1.031,13.375,2.966,19.85,5.917
		c37.908,17.276,54.635,62.011,37.358,99.919c-2.003,4.397-4.381,8.505-7.071,12.312c3.978,0.842,7.4,3.18,9.67,6.393
		c2.799-3.971,5.274-8.253,7.362-12.836C185.707,92.973,168.176,46.083,128.441,27.975z"/>
</g>
<g>
	<path fill="#FFFFFF" d="M146.723,101.677c-5.396,0-9.785-4.389-9.785-9.784s4.39-9.784,9.785-9.784
		c5.395,0,9.784,4.389,9.784,9.784S152.117,101.677,146.723,101.677z"/>
	<path d="M146.723,83.271c4.762,0,8.622,3.86,8.622,8.622s-3.86,8.622-8.622,8.622s-8.623-3.86-8.623-8.622
		S141.961,83.271,146.723,83.271 M144.945,98.343c-2.139-1.106-3.601-3.336-3.601-5.91c0-3.673,2.978-6.65,6.649-6.65
		c0.18,0,0.357,0.009,0.533,0.023c-0.668-0.231-1.384-0.363-2.131-0.363c-3.608,0-6.533,2.925-6.533,6.533
		C139.863,95.086,142.037,97.683,144.945,98.343 M146.723,80.948c-6.036,0-10.946,4.91-10.946,10.946s4.91,10.946,10.946,10.946
		c6.035,0,10.945-4.91,10.945-10.946S152.758,80.948,146.723,80.948L146.723,80.948z"/>
</g>
<g>
	<path fill="#FFFFFF" d="M146.723,168.163c-7.818,0-14.179-6.36-14.179-14.178c0-7.818,6.36-14.179,14.179-14.179
		s14.179,6.36,14.179,14.179C160.901,161.802,154.541,168.163,146.723,168.163z"/>
	<path d="M146.723,141.49c6.9,0,12.495,5.595,12.495,12.495c0,6.899-5.595,12.494-12.495,12.494
		c-6.901,0-12.495-5.595-12.495-12.494C134.228,147.084,139.821,141.49,146.723,141.49 M144.147,163.331
		c-3.099-1.603-5.219-4.834-5.219-8.563c0-5.322,4.314-9.637,9.638-9.637c0.26,0,0.518,0.013,0.772,0.033
		c-0.969-0.335-2.006-0.525-3.089-0.525c-5.229,0-9.468,4.238-9.468,9.468C136.782,158.611,139.932,162.373,144.147,163.331
		 M146.723,138.123c-8.746,0-15.862,7.116-15.862,15.862c0,8.746,7.116,15.861,15.862,15.861s15.862-7.115,15.862-15.861
		C162.585,145.238,155.469,138.123,146.723,138.123L146.723,138.123z"/>
</g>
</svg>
