<svg xmlns="http://www.w3.org/2000/svg" width="200" height="200" viewBox="0 0 200 200"><g fill="#fff"><polygon points="66.997,101.068 54.962,98.038 66.997,95.007"/><polygon points="108.954,95.006 120.99,98.036 108.955,101.067"/></g><g fill="#fff"><polygon points="70.998,85.347 64.631,74.693 75.284,81.06"/><polygon points="104.953,110.728 111.321,121.381 100.668,115.015"/></g><g fill="#fff"><polygon points="84.944,77.059 87.975,65.023 91.006,77.058"/><polygon points="91.007,119.015 87.977,131.051 84.945,119.017"/></g><g fill="#fff"><polygon points="100.666,81.06 111.319,74.692 104.953,85.346"/><polygon points="75.285,115.014 64.632,121.382 70.998,110.729"/></g><path fill="#fff" d="M87.975 78.446c-10.818 0-19.591 8.771-19.591 19.591s8.772 19.592 19.591 19.592c10.82 0 19.592-8.771 19.592-19.592-.001-10.819-8.772-19.591-19.592-19.591zm5.127 4.046c-9.344 0-16.92 7.576-16.92 16.92 0 6.547 3.722 12.221 9.162 15.035-7.401-1.681-12.931-8.288-12.931-16.197 0-9.18 7.442-16.622 16.622-16.622 1.902 0 3.722.335 5.424.923-.448-.036-.9-.059-1.357-.059z"/><g fill="#fff"><polygon points="82.488,118.422 77.679,122.112 76.887,116.101"/><polygon points="93.463,77.652 98.271,73.963 99.063,79.973"/></g><g fill="#fff"><polygon points="69.681,108.572 63.671,107.78 67.361,102.97"/><polygon points="106.271,87.503 112.279,88.295 108.59,93.104"/></g><g fill="#fff"><polygon points="67.59,92.55 63.9,87.741 69.911,86.949"/><polygon points="108.36,103.525 112.05,108.334 106.04,109.126"/></g><g fill="#fff"><polygon points="77.441,79.743 78.232,73.733 83.043,77.423"/><polygon points="98.509,116.333 97.718,122.342 92.908,118.652"/></g><g fill="#fff"><path d="M142.213 81.687c1.518-.797 3.24-1.254 5.069-1.254.868 0 1.709.112 2.521.305-4.484-18.883-17.312-35.576-36.342-44.248-7.497-3.417-15.304-5.276-23.064-5.743 5.519.848 11.015 2.442 16.345 4.872 19.44 8.858 32.11 26.488 35.471 46.068zM147.282 102.324c-1.743 0-3.385-.42-4.849-1.147-.832 5.644-2.444 11.267-4.928 16.718-14.227 31.216-51.063 44.989-82.279 30.762-11.42-5.204-20.492-13.442-26.727-23.317 6.449 12.646 17.045 23.289 30.966 29.632 32.719 14.912 71.33.476 86.24-32.244 3.141-6.891 4.965-14.044 5.604-21.182-1.247.497-2.604.778-4.027.778z"/></g><g fill="#fff"><path d="M131.724 157.731c-21.096 14.467-49.03 17.844-74.005 6.462-13.867-6.319-24.886-16.324-32.455-28.315 7.831 15.357 20.698 28.281 37.604 35.985 25 11.393 52.831 8.674 74.546-4.804-2.884-2.3-4.952-5.576-5.69-9.328zM128.441 27.975c-9.105-4.149-18.586-6.406-28.011-6.974 6.701 1.031 13.375 2.966 19.85 5.917 37.908 17.276 54.635 62.011 37.358 99.919-2.003 4.397-4.381 8.505-7.071 12.312 3.978.842 7.4 3.18 9.67 6.393 2.799-3.971 5.274-8.253 7.362-12.836 18.108-39.733.577-86.623-39.158-104.731z"/></g><path fill="#fff" d="M146.723 101.677c-5.396 0-9.785-4.389-9.785-9.784s4.39-9.784 9.785-9.784c5.395 0 9.784 4.389 9.784 9.784s-4.39 9.784-9.784 9.784z"/><path d="M146.723 83.271c4.762 0 8.622 3.86 8.622 8.622s-3.86 8.622-8.622 8.622-8.623-3.86-8.623-8.622 3.861-8.622 8.623-8.622m-1.778 15.072c-2.139-1.106-3.601-3.336-3.601-5.91 0-3.673 2.978-6.65 6.649-6.65.18 0 .357.009.533.023-.668-.231-1.384-.363-2.131-.363-3.608 0-6.533 2.925-6.533 6.533.001 3.11 2.175 5.707 5.083 6.367m1.778-17.395c-6.036 0-10.946 4.91-10.946 10.946s4.91 10.946 10.946 10.946c6.035 0 10.945-4.91 10.945-10.946s-4.91-10.946-10.945-10.946z"/><path fill="#fff" d="M146.723 168.163c-7.818 0-14.179-6.36-14.179-14.178 0-7.818 6.36-14.179 14.179-14.179s14.179 6.36 14.179 14.179c-.001 7.817-6.361 14.178-14.179 14.178z"/><path d="M146.723 141.49c6.9 0 12.495 5.595 12.495 12.495 0 6.899-5.595 12.494-12.495 12.494-6.901 0-12.495-5.595-12.495-12.494 0-6.901 5.593-12.495 12.495-12.495m-2.576 21.841c-3.099-1.603-5.219-4.834-5.219-8.563 0-5.322 4.314-9.637 9.638-9.637.26 0 .518.013.772.033-.969-.335-2.006-.525-3.089-.525-5.229 0-9.468 4.238-9.468 9.468.001 4.504 3.151 8.266 7.366 9.224m2.576-25.208c-8.746 0-15.862 7.116-15.862 15.862s7.116 15.861 15.862 15.861 15.862-7.115 15.862-15.861c0-8.747-7.116-15.862-15.862-15.862z"/></svg>