<?xml version="1.0" encoding="utf-8"?>
<!-- Generator: Adobe Illustrator 16.0.0, SVG Export Plug-In . SVG Version: 6.00 Build 0)  -->
<!DOCTYPE svg PUBLIC "-//W3C//DTD SVG 1.1//EN" "http://www.w3.org/Graphics/SVG/1.1/DTD/svg11.dtd">
<svg version="1.1" id="Layer_1" xmlns="http://www.w3.org/2000/svg" xmlns:xlink="http://www.w3.org/1999/xlink" x="0px" y="0px"
	 width="200px" height="200px" viewBox="0 0 200 200" enable-background="new 0 0 200 200" xml:space="preserve">
<path fill="#FFFFFF" d="M173.675,154.071l-2.327-2.433l-2.591-17.995l0.663-0.668l5.469,0.99l-2.541-4.943l2.632-4.896l-5.487,0.889
	L165.649,121l-0.838,5.415L148.778,116.2l-1.677-3.263l2.632-4.896l-5.488,0.889l-3.842-4.016l-0.85,5.493l-5.007,2.414l2.821,1.424
	l-19.26,7.747l0.845-1.571l-5.486,0.888l-3.844-4.015l-0.85,5.493l-5.007,2.414l4.962,2.506l0.748,5.507l2.061-2.075l0.71,21.036
	l-1.497-1.565l-0.85,5.494l-5.007,2.414l3.368,1.702l-31.245,16.112l0.287-0.537l-5.485,0.888l-3.806-3.976L35.666,68.429
	l5.091,0.921l-2.542-4.943l0.955-1.776l20.313-6.393l1.8,0.909l0.747,5.508l3.917-3.944l5.47,0.991l-2.54-4.944l2.631-4.896
	l-5.486,0.889l-3.843-4.016l-0.574,3.71L39.631,22.009l3.094,0.561l-2.541-4.943l2.632-4.896l-5.486,0.889l-3.844-4.016
	l-0.851,5.493l-5.007,2.414l4.962,2.506l0.748,5.508l1.501-1.511l-1.761,34.001l-1.562-1.63l-0.85,5.494L25.66,64.29l4.961,2.506
	l0.749,5.508l3.646-3.673l32.729,105.515l-0.62,4.014l-5.007,2.414l4.961,2.505l0.749,5.508l3.916-3.944l5.471,0.99l-2.542-4.943
	l1.773-3.299l32.567-16.793l0.841,0.425l0.749,5.508l3.917-3.945l5.47,0.99l-2.542-4.943l2.632-4.896l-5.486,0.889l-1.64-1.713
	l-0.759-22.437l1.198-1.206l5.47,0.99l-2.541-4.943l1.284-2.389l20.569-8.274l1.332,0.673l0.748,5.507l3.918-3.944l5.47,0.99
	l-0.247-0.48l14.759,9.404l-4.362,2.103l4.961,2.506l0.749,5.508l2.652-2.671l2.382,16.543l-0.705-0.737l-0.851,5.493l-5.006,2.414
	l4.96,2.506l0.75,5.507l3.916-3.944l5.47,0.99l-2.541-4.943l2.632-4.896L173.675,154.071z M35.557,23.29l1.699-1.71l1.373,0.249
	l22.832,29.545l-0.133,0.854l-5.006,2.414l2.29,1.157l-18.981,5.974l1.216-2.261l-5.487,0.889l-1.636-1.71L35.557,23.29z"/>
</svg>
