<svg xmlns="http://www.w3.org/2000/svg" width="200" height="200" viewBox="0 0 200 200"><path fill="#fff" d="M173.675 154.071l-2.327-2.433-2.591-17.995.663-.668 5.469.99-2.541-4.943 2.632-4.896-5.487.889-3.844-4.015-.838 5.415-16.033-10.215-1.677-3.263 2.632-4.896-5.488.889-3.842-4.016-.85 5.493-5.007 2.414 2.821 1.424-19.26 7.747.845-1.571-5.486.888-3.844-4.015-.85 5.493-5.007 2.414 4.962 2.506.748 5.507 2.061-2.075.71 21.036-1.497-1.565-.85 5.494-5.007 2.414 3.368 1.702-31.245 16.112.287-.537-5.485.888-3.806-3.976-32.345-104.278 5.091.921-2.542-4.943.955-1.776 20.313-6.393 1.8.909.747 5.508 3.917-3.944 5.47.991-2.54-4.944 2.631-4.896-5.486.889-3.843-4.016-.574 3.71-21.974-28.436 3.094.561-2.541-4.943 2.632-4.896-5.486.889-3.844-4.016-.851 5.493-5.007 2.414 4.962 2.506.748 5.508 1.501-1.511-1.761 34.001-1.562-1.63-.85 5.494-5.006 2.411 4.961 2.506.749 5.508 3.646-3.673 32.729 105.515-.62 4.014-5.007 2.414 4.961 2.505.749 5.508 3.916-3.944 5.471.99-2.542-4.943 1.773-3.299 32.567-16.793.841.425.749 5.508 3.917-3.945 5.47.99-2.542-4.943 2.632-4.896-5.486.889-1.64-1.713-.759-22.437 1.198-1.206 5.47.99-2.541-4.943 1.284-2.389 20.569-8.274 1.332.673.748 5.507 3.918-3.944 5.47.99-.247-.48 14.759 9.404-4.362 2.103 4.961 2.506.749 5.508 2.652-2.671 2.382 16.543-.705-.737-.851 5.493-5.006 2.414 4.96 2.506.75 5.507 3.916-3.944 5.47.99-2.541-4.943 2.632-4.896-5.487.888zm-138.118-130.781l1.699-1.71 1.373.249 22.832 29.545-.133.854-5.006 2.414 2.29 1.157-18.981 5.974 1.216-2.261-5.487.889-1.636-1.71 1.833-35.401z"/></svg>