<svg xmlns="http://www.w3.org/2000/svg" width="200" height="200" viewBox="0 0 200 200"><g fill="#fff"><path d="M146.087 106.672c4.893 7.124 5.534 15.104 4.25 23.329-1.834 11.68-6.604 22.29-12.199 32.532-.611 1.131-1.468 2.477-2.568 2.936-1.468.611-3.639 1.162-4.831.52-1.101-.581-1.712-2.813-1.773-4.342-.152-3.363.673-6.818.214-10.12-.428-2.936-1.468-6.115-3.18-8.5-3.669-5.167-7.368-4.831-9.814.856-.795 1.834-1.743 3.21-2.996 4.036h-30.057000000000002c-2.508-1.499-3.578-5.473-5.32-8.408-5.351.336-8.806 2.904-9.846 8.683-.733 4.281-.092 8.775-.428 13.147-.122 1.682-.856 4.311-1.927 4.647-1.59.52-3.699-.581-5.564-1.101-.367-.092-.642-.612-.855-.979-6.666-12.23-12.658-24.735-13.454-38.922-.428-8.133 1.254-14.34 5.412-19.171.459-.52.917-1.009 1.406-1.468 3.211-3.149 7.613-5.656 13.301-7.766.03-1.559.062-3.088.062-4.647l2.415.031c.52 4.617 1.009 9.234 1.406 13.056 9.203.184 17.673.367 25.256.52 1.498-2.446 2.66-4.372 3.853-6.329 1.101 2.049 2.231 4.097 2.874 5.259 8.469.397 16.479.795 24.796 1.192.459-4.861.887-9.326 1.315-14.095l2.445.092-.03 1.009c-.061 1.162-.122 2.354-.184 3.761 6.329 1.926 12.168 4.617 16.021 10.242zm-8.285 3.67c4.188 6.298 4.097 6.359 6.787 6.604-1.223-7.827-6.481-13.729-13.27-14.768 2.202 2.721 4.556 5.289 6.483 8.164zm-25.562 33.785c3.363-3.914 4.709-9.509 7.308-15.379-6.696-.214-12.139-.428-17.856-.642-.244 6.298-.458 11.833-.733 18.559 4.219-.825 9.355-.306 11.281-2.538zm-13.055-31.278c.122-3.822.244-7.644.367-11.466l-1.407-.061c-.152 3.853-.274 7.705-.428 11.527h1.468zm-2.599 34.366c-.306-7.399-.551-13.086-.765-18.528-6.665.183-12.934.306-19.385.458 2.079 4.647 4.158 9.692 6.513 14.554.55 1.07 2.049 2.079 3.241 2.293 3.302.643 6.665.826 10.396 1.223zm-43.723-28.71c4.402-5.871 8.377-11.16 12.321-16.419-7.246 1.162-13.697 9.02-12.321 16.419zM114.411 40.141c11.741 14.309 16.663 31.646 15.868 51.52l-2.445-.092c-20.18.122-39.596.245-59.5.397l-2.415-.031v-1.131l.03-3.853c.03-1.926.092-3.852.244-5.748.979-14.676 5.534-27.426 13.606-38.28l1.712 1.223c-.764 1.04-1.284 1.987-1.039 2.477 2.079 4.372 9.02 1.07 13.239 1.223 7.43.275 14.859-.031 22.351-.062-.826-2.813-1.957-4.831-3.333-6.298l1.682-1.345zM114.809 147.919l6.696 8.928h-10.06l5.045 10.029h-8.255l-2.66-10.029h5.319l-3.18-8.041c.275 0 .581.03.856.061 1.926.214 3.425-.123 4.617-.948h1.622zM114.411 40.141l-1.682 1.345c-4.709-4.984-12.169-3.486-19.354-3.639-2.721.428-5.197-.092-8.989 3.241-.887.795-2.018 1.957-2.874 3.058l-1.712-1.223c4.22-5.687 9.387-10.854 15.532-15.502 2.446-1.865 3.883-1.467 6.054.214 5.014 3.883 9.356 8.041 13.025 12.506zM107.349 147.919h5.84c-1.192.825-2.691 1.162-4.617.948-.275-.031-.581-.061-.856-.061l-.367-.887z"/><polygon points="108.021,166.875 104.963,175.345 103.832,175.345 103.771,166.875"/><path d="M99.552 101.383c-.123 3.822-.245 7.644-.367 11.466h-1.468c.153-3.822.275-7.674.428-11.527l1.407.061z"/><polygon points="94.201,166.875 94.904,175.345 93.772,175.345 89.92,166.875"/><path d="M92.396 156.847l-2.66 10.029h-8.255l5.045-10.029h-10.09l6.727-8.928c1.896 1.131 4.434 1.131 7.002 1.131l-3.088 7.797h5.319zM90.623 147.919l-.458 1.131c-2.568 0-5.106 0-7.002-1.131h7.46z"/></g></svg>