<?xml version="1.0" encoding="utf-8"?>
<!-- Generator: Adobe Illustrator 16.0.0, SVG Export Plug-In . SVG Version: 6.00 Build 0)  -->
<!DOCTYPE svg PUBLIC "-//W3C//DTD SVG 1.1//EN" "http://www.w3.org/Graphics/SVG/1.1/DTD/svg11.dtd">
<svg version="1.1" id="Layer_1" xmlns="http://www.w3.org/2000/svg" xmlns:xlink="http://www.w3.org/1999/xlink" x="0px" y="0px"
	 width="200px" height="200px" viewBox="0 0 200 200" enable-background="new 0 0 200 200" xml:space="preserve">
<g>
	<g>
		<g id="XMLID_2_">
			<g>
				<path fill="#FFFFFF" d="M146.087,106.672c4.893,7.124,5.534,15.104,4.25,23.329c-1.834,11.68-6.604,22.29-12.199,32.532
					c-0.611,1.131-1.468,2.477-2.568,2.936c-1.468,0.611-3.639,1.162-4.831,0.52c-1.101-0.581-1.712-2.813-1.773-4.342
					c-0.152-3.363,0.673-6.818,0.214-10.12c-0.428-2.936-1.468-6.115-3.18-8.5c-3.669-5.167-7.368-4.831-9.814,0.856
					c-0.795,1.834-1.743,3.21-2.996,4.036h-5.84H90.623h-7.46h-0.03c-2.508-1.499-3.578-5.473-5.32-8.408
					c-5.351,0.336-8.806,2.904-9.846,8.683c-0.733,4.281-0.092,8.775-0.428,13.147c-0.122,1.682-0.856,4.311-1.927,4.647
					c-1.59,0.52-3.699-0.581-5.564-1.101c-0.367-0.092-0.642-0.612-0.855-0.979c-6.666-12.23-12.658-24.735-13.454-38.922
					c-0.428-8.133,1.254-14.34,5.412-19.171c0.459-0.52,0.917-1.009,1.406-1.468c3.211-3.149,7.613-5.656,13.301-7.766
					c0.03-1.559,0.062-3.088,0.062-4.647l2.415,0.031c0.52,4.617,1.009,9.234,1.406,13.056c9.203,0.184,17.673,0.367,25.256,0.52
					c1.498-2.446,2.66-4.372,3.853-6.329c1.101,2.049,2.231,4.097,2.874,5.259c8.469,0.397,16.479,0.795,24.796,1.192
					c0.459-4.861,0.887-9.326,1.315-14.095l2.445,0.092c0,0.336-0.03,0.672-0.03,1.009c-0.061,1.162-0.122,2.354-0.184,3.761
					C136.395,98.356,142.234,101.047,146.087,106.672z M137.802,110.342c4.188,6.298,4.097,6.359,6.787,6.604
					c-1.223-7.827-6.481-13.729-13.27-14.768C133.521,104.899,135.875,107.467,137.802,110.342z M112.24,144.127
					c3.363-3.914,4.709-9.509,7.308-15.379c-6.696-0.214-12.139-0.428-17.856-0.642c-0.244,6.298-0.458,11.833-0.733,18.559
					C105.178,145.84,110.314,146.359,112.24,144.127z M99.185,112.849c0.122-3.822,0.244-7.644,0.367-11.466
					c-0.489-0.03-0.948-0.03-1.407-0.061c-0.152,3.853-0.274,7.705-0.428,11.527C98.206,112.849,98.695,112.849,99.185,112.849z
					 M96.586,147.215c-0.306-7.399-0.551-13.086-0.765-18.528c-6.665,0.183-12.934,0.306-19.385,0.458
					c2.079,4.647,4.158,9.692,6.513,14.554c0.55,1.07,2.049,2.079,3.241,2.293C89.492,146.635,92.855,146.818,96.586,147.215z
					 M52.863,118.505c4.402-5.871,8.377-11.16,12.321-16.419C57.938,103.248,51.487,111.106,52.863,118.505z"/>
				<path d="M144.589,116.946c-2.69-0.245-2.599-0.306-6.787-6.604c-1.927-2.875-4.281-5.443-6.482-8.164
					C138.107,103.217,143.366,109.119,144.589,116.946z"/>
				<path fill="#FFFFFF" d="M114.411,40.141c11.741,14.309,16.663,31.646,15.868,51.52l-2.445-0.092
					c-20.18,0.122-39.596,0.245-59.5,0.397l-2.415-0.031c0-0.367,0-0.734,0-1.131c0-1.284,0.03-2.568,0.03-3.853
					c0.03-1.926,0.092-3.852,0.244-5.748c0.979-14.676,5.534-27.426,13.606-38.28l1.712,1.223c-0.764,1.04-1.284,1.987-1.039,2.477
					c2.079,4.372,9.02,1.07,13.239,1.223c7.43,0.275,14.859-0.031,22.351-0.062c-0.826-2.813-1.957-4.831-3.333-6.298
					L114.411,40.141z"/>
				<path d="M127.834,91.568c-0.429,4.77-0.856,9.234-1.315,14.095c-8.316-0.397-16.327-0.795-24.796-1.192
					c-0.643-1.162-1.773-3.21-2.874-5.259c-1.192,1.957-2.354,3.883-3.853,6.329c-7.583-0.153-16.053-0.336-25.256-0.52
					c-0.397-3.822-0.887-8.439-1.406-13.056C88.238,91.813,107.654,91.69,127.834,91.568z"/>
				<path fill="#FFFFFF" d="M114.809,147.919l6.696,8.928h-10.06l5.045,10.029h-8.255l-2.66-10.029h5.319l-3.18-8.041
					c0.275,0,0.581,0.03,0.856,0.061c1.926,0.214,3.425-0.123,4.617-0.948H114.809z"/>
				<path fill="#FFFFFF" d="M114.411,40.141l-1.682,1.345c-4.709-4.984-12.169-3.486-19.354-3.639
					c-2.721,0.428-5.197-0.092-8.989,3.241c-0.887,0.795-2.018,1.957-2.874,3.058L79.8,42.923
					c4.22-5.687,9.387-10.854,15.532-15.502c2.446-1.865,3.883-1.467,6.054,0.214C106.4,31.518,110.742,35.676,114.411,40.141z"/>
				<path d="M119.548,128.748c-2.599,5.871-3.944,11.466-7.308,15.379c-1.926,2.232-7.062,1.712-11.282,2.538
					c0.275-6.727,0.489-12.261,0.733-18.559C107.409,128.32,112.852,128.534,119.548,128.748z"/>
				<path d="M112.729,41.486c1.376,1.468,2.507,3.485,3.333,6.298c-7.491,0.031-14.921,0.336-22.351,0.062
					c-4.22-0.153-11.16,3.149-13.239-1.223c-0.245-0.489,0.275-1.437,1.039-2.477c0.856-1.101,1.987-2.263,2.874-3.058
					c3.792-3.333,6.269-2.813,8.989-3.241C100.561,38,108.021,36.502,112.729,41.486z"/>
				<path fill="#FFFFFF" d="M107.349,147.919h5.84c-1.192,0.825-2.691,1.162-4.617,0.948c-0.275-0.031-0.581-0.061-0.856-0.061
					L107.349,147.919z"/>
				<path d="M107.715,148.806l3.18,8.041h-5.319l2.66,10.029h-0.215h-4.25l0.062,8.469h-8.928l-0.703-8.469H89.92h-0.184
					l2.66-10.029h-5.319l3.088-7.797c1.131,0,2.263,0.031,3.363,0.123c0.611,4.617,0.979,9.203,1.957,13.637
					c0.306,1.529,2.171,2.721,3.302,4.066c1.101-1.376,2.812-2.599,3.119-4.127c0.917-4.434,1.223-8.989,1.804-13.729
					C105.086,148.958,106.431,148.806,107.715,148.806z"/>
				<polygon fill="#FFFFFF" points="108.021,166.875 104.963,175.345 103.832,175.345 103.771,166.875 				"/>
				<path d="M107.715,148.806c-1.284,0-2.629,0.153-4.005,0.214c-0.581,4.739-0.887,9.295-1.804,13.729
					c-0.307,1.528-2.019,2.751-3.119,4.127c-1.131-1.345-2.996-2.538-3.302-4.066c-0.979-4.434-1.346-9.02-1.957-13.637
					c-1.101-0.092-2.232-0.123-3.363-0.123l0.458-1.131h16.726L107.715,148.806z"/>
				<path fill="#FFFFFF" d="M99.552,101.383c-0.123,3.822-0.245,7.644-0.367,11.466c-0.489,0-0.979,0-1.468,0
					c0.153-3.822,0.275-7.674,0.428-11.527C98.604,101.353,99.062,101.353,99.552,101.383z"/>
				<path d="M95.821,128.687c0.214,5.442,0.459,11.129,0.765,18.528c-3.73-0.397-7.094-0.581-10.396-1.223
					c-1.192-0.214-2.691-1.223-3.241-2.293c-2.354-4.861-4.434-9.906-6.513-14.554C82.888,128.993,89.156,128.87,95.821,128.687z"/>
				<polygon fill="#FFFFFF" points="94.201,166.875 94.904,175.345 93.772,175.345 89.92,166.875 				"/>
				<path fill="#FFFFFF" d="M92.396,156.847l-2.66,10.029h-8.255l5.045-10.029h-10.09l6.727-8.928
					c1.896,1.131,4.434,1.131,7.002,1.131l-3.088,7.797H92.396z"/>
				<path fill="#FFFFFF" d="M90.623,147.919l-0.458,1.131c-2.568,0-5.106,0-7.002-1.131H90.623z"/>
				<path d="M65.185,102.086c-3.944,5.259-7.919,10.548-12.321,16.419C51.487,111.106,57.938,103.248,65.185,102.086z"/>
			</g>
		</g>
	</g>
</g>
</svg>
