<svg xmlns="http://www.w3.org/2000/svg" width="200" height="200" viewBox="0 0 200 200"><path fill="#fff" d="M96.017 13.385c2.19-4.439 5.776-4.439 7.967 0l22.799 46.196c2.19 4.439 7.991 8.653 12.89 9.365l50.98 7.408c4.898.711 6.006 4.121 2.461 7.576l-36.889 35.958c-3.545 3.455-5.761 10.274-4.924 15.153l8.708 50.774c.837 4.879-2.063 6.986-6.444 4.683l-45.599-23.973c-4.381-2.303-11.551-2.303-15.932 0l-45.599 23.973c-4.381 2.303-7.281.196-6.444-4.683l8.708-50.774c.837-4.879-1.379-11.698-4.924-15.153l-36.888-35.958c-3.545-3.455-2.438-6.865 2.461-7.576l50.98-7.408c4.898-.711 10.699-4.926 12.89-9.365l22.799-46.196z"/></svg>