<svg xmlns="http://www.w3.org/2000/svg" width="200" height="200" viewBox="0 0 200 200"><g fill="#fff"><polygon points="29.163,50.285 30.339,52.667 32.968,53.049 31.065,54.903 31.515,57.521 29.163,56.285 26.812,57.521 27.261,54.903 25.358,53.049 27.987,52.667"/><polygon points="48.496,57.521 49.672,59.903 52.301,60.285 50.398,62.139 50.848,64.757 48.496,63.521 46.145,64.757 46.594,62.139 44.691,60.285 47.32,59.903"/><polygon points="40.887,46.667 42.062,49.049 44.691,49.431 42.789,51.285 43.238,53.903 40.887,52.667 38.535,53.903 38.984,51.285 37.082,49.431 39.711,49.049"/><polygon points="17.988,61.139 19.164,63.521 21.793,63.903 19.891,65.757 20.34,68.375 17.988,67.139 15.637,68.375 16.086,65.757 14.184,63.903 16.812,63.521"/><polygon points="7.654,34.285 8.83,36.667 11.459,37.049 9.557,38.903 10.006,41.521 7.654,40.285 5.303,41.521 5.752,38.903 3.85,37.049 6.479,36.667"/><polygon points="27.691,30.667 28.867,33.049 31.496,33.431 29.594,35.285 30.043,37.903 27.691,36.667 25.34,37.903 25.789,35.285 23.887,33.431 26.516,33.049"/><polygon points="17.988,43.049 19.164,45.431 21.793,45.813 19.891,47.667 20.34,50.285 17.988,49.049 15.637,50.285 16.086,47.667 14.184,45.813 16.812,45.431"/><polygon points="14.184,23.431 15.359,25.813 17.988,26.195 16.086,28.049 16.535,30.667 14.184,29.431 11.832,30.667 12.281,28.049 10.379,26.195 13.008,25.813"/><polygon points="3.85,17.952 5.025,20.333 7.654,20.716 5.752,22.57 6.201,25.188 3.85,23.952 1.498,25.188 1.947,22.57 0.045,20.716 2.674,20.333"/><polygon points="31.496,72.188 32.672,74.57 35.301,74.952 33.398,76.806 33.848,79.424 31.496,78.188 29.145,79.424 29.594,76.806 27.691,74.952 30.32,74.57"/><polygon points="56.105,81.382 57.281,83.764 59.91,84.146 58.008,86 58.457,88.618 56.105,87.382 53.754,88.618 54.203,86 52.301,84.146 54.93,83.764"/><polygon points="62.123,55.618 63.299,58 65.928,58.382 64.025,60.236 64.475,62.854 62.123,61.618 59.771,62.854 60.221,60.236 58.318,58.382 60.947,58"/><polygon points="42.732,95.048 43.908,97.43 46.537,97.812 44.635,99.667 45.084,102.284 42.732,101.048 40.381,102.284 40.83,99.667 38.928,97.812 41.557,97.43"/><polygon points="69.732,104.715 70.908,107.097 73.537,107.479 71.635,109.333 72.084,111.951 69.732,110.715 67.381,111.951 67.83,109.333 65.928,107.479 68.557,107.097"/><polygon points="82.732,85 83.908,87.382 86.537,87.764 84.635,89.618 85.084,92.236 82.732,91 80.381,92.236 80.83,89.618 78.928,87.764 81.557,87.382"/><polygon points="86.537,96.382 87.713,98.764 90.342,99.146 88.439,101 88.889,103.618 86.537,102.382 84.186,103.618 84.635,101 82.732,99.146 85.361,98.764"/><polygon points="80.399,109.715 81.575,112.097 84.204,112.479 82.302,114.333 82.751,116.951 80.399,115.715 78.048,116.951 78.497,114.333 76.595,112.479 79.224,112.097"/><polygon points="65.928,123.048 67.104,125.43 69.732,125.812 67.83,127.667 68.279,130.284 65.928,129.048 63.576,130.284 64.025,127.667 62.123,125.812 64.752,125.43"/><polygon points="62.123,142.48 63.299,144.862 65.928,145.244 64.025,147.098 64.475,149.716 62.123,148.48 59.771,149.716 60.221,147.098 58.318,145.244 60.947,144.862"/><polygon points="86.537,141.048 87.713,143.43 90.342,143.812 88.439,145.667 88.889,148.284 86.537,147.048 84.186,148.284 84.635,145.667 82.732,143.812 85.361,143.43"/><polygon points="96.195,130.284 97.371,132.666 100,133.048 98.098,134.902 98.547,137.52 96.195,136.284 93.844,137.52 94.293,134.902 92.391,133.048 95.02,132.666"/><polygon points="122.164,113.333 123.34,115.715 125.969,116.097 124.066,117.951 124.516,120.569 122.164,119.333 119.812,120.569 120.262,117.951 118.359,116.097 120.988,115.715"/><polygon points="122.164,88.618 123.34,91 125.969,91.382 124.066,93.236 124.516,95.854 122.164,94.618 119.812,95.854 120.262,93.236 118.359,91.382 120.988,91"/><polygon points="142.164,133.902 143.34,136.284 145.969,136.666 144.066,138.52 144.516,141.138 142.164,139.902 139.812,141.138 140.262,138.52 138.359,136.666 140.988,136.284"/><polygon points="125.969,156.952 127.145,159.333 129.773,159.716 127.871,161.57 128.32,164.188 125.969,162.952 123.617,164.188 124.066,161.57 122.164,159.716 124.793,159.333"/><polygon points="119.654,137.431 120.83,139.812 123.459,140.195 121.557,142.049 122.006,144.667 119.654,143.431 117.303,144.667 117.752,142.049 115.85,140.195 118.479,139.812"/><polygon points="108.654,100 109.83,102.381 112.459,102.764 110.557,104.618 111.006,107.235 108.654,106 106.303,107.235 106.752,104.618 104.85,102.764 107.479,102.381"/><polygon points="102.673,81.382 103.849,83.764 106.478,84.146 104.575,86 105.024,88.618 102.673,87.382 100.321,88.618 100.771,86 98.868,84.146 101.497,83.764"/><polygon points="50.342,119.431 51.518,121.812 54.146,122.195 52.244,124.049 52.693,126.667 50.342,125.431 47.99,126.667 48.439,124.049 46.537,122.195 49.166,121.812"/><polygon points="27.691,96.382 28.867,98.764 31.496,99.146 29.594,101 30.043,103.618 27.691,102.382 25.34,103.618 25.789,101 23.887,99.146 26.516,98.764"/><polygon points="136.654,101.098 137.83,103.479 140.459,103.862 138.557,105.716 139.006,108.333 136.654,107.098 134.303,108.333 134.752,105.716 132.85,103.862 135.479,103.479"/><polygon points="145.969,116.951 147.145,119.333 149.773,119.715 147.871,121.569 148.32,124.187 145.969,122.951 143.617,124.187 144.066,121.569 142.164,119.715 144.793,119.333"/><polygon points="102.673,113.333 103.849,115.715 106.478,116.097 104.575,117.951 105.024,120.569 102.673,119.333 100.321,120.569 100.771,117.951 98.868,116.097 101.497,115.715"/><polygon points="82.732,124.187 83.908,126.569 86.537,126.951 84.635,128.805 85.084,131.423 82.732,130.187 80.381,131.423 80.83,128.805 78.928,126.951 81.557,126.569"/><polygon points="94.146,104.715 95.322,107.097 97.951,107.479 96.049,109.333 96.498,111.951 94.146,110.715 91.795,111.951 92.244,109.333 90.342,107.479 92.971,107.097"/><polygon points="90.342,46.667 91.518,49.049 94.146,49.432 92.244,51.286 92.693,53.903 90.342,52.667 87.99,53.903 88.439,51.286 86.537,49.432 89.166,49.049"/><polygon points="52.301,102.284 53.477,104.666 56.105,105.048 54.203,106.902 54.652,109.52 52.301,108.284 49.949,109.52 50.398,106.902 48.496,105.048 51.125,104.666"/><polygon points="56.105,95.048 57.281,97.43 59.91,97.812 58.008,99.667 58.457,102.284 56.105,101.048 53.754,102.284 54.203,99.667 52.301,97.812 54.93,97.43"/><polygon points="69.732,88.618 70.908,91 73.537,91.382 71.635,93.236 72.084,95.854 69.732,94.618 67.381,95.854 67.83,93.236 65.928,91.382 68.557,91"/><polygon points="76.595,72.188 77.771,74.57 80.399,74.952 78.497,76.806 78.946,79.424 76.595,78.188 74.243,79.424 74.692,76.806 72.79,74.952 75.419,74.57"/><polygon points="44.691,68.57 45.867,70.952 48.496,71.334 46.594,73.188 47.043,75.806 44.691,74.57 42.34,75.806 42.789,73.188 40.887,71.334 43.516,70.952"/><polygon points="63.715,68.57 64.891,70.952 67.52,71.334 65.617,73.188 66.066,75.806 63.715,74.57 61.363,75.806 61.812,73.188 59.91,71.334 62.539,70.952"/><polygon points="42.732,83.715 43.908,86.097 46.537,86.479 44.635,88.333 45.084,90.951 42.732,89.715 40.381,90.951 40.83,88.333 38.928,86.479 41.557,86.097"/><polygon points="132.85,130.284 134.025,132.666 136.654,133.048 134.752,134.902 135.201,137.52 132.85,136.284 130.498,137.52 130.947,134.902 129.045,133.048 131.674,132.666"/><polygon points="112.459,126.666 113.635,129.048 116.264,129.43 114.361,131.284 114.811,133.902 112.459,132.666 110.107,133.902 110.557,131.284 108.654,129.43 111.283,129.048"/><polygon points="104.85,153.334 106.025,155.716 108.654,156.098 106.752,157.952 107.201,160.57 104.85,159.334 102.498,160.57 102.947,157.952 101.045,156.098 103.674,155.716"/><polygon points="106.478,144.666 107.653,147.048 110.282,147.43 108.38,149.284 108.829,151.902 106.478,150.666 104.126,151.902 104.575,149.284 102.673,147.43 105.302,147.048"/><polygon points="136.654,149.716 137.83,152.098 140.459,152.48 138.557,154.334 139.006,156.952 136.654,155.716 134.303,156.952 134.752,154.334 132.85,152.48 135.479,152.098"/><polygon points="144.264,167.952 145.439,170.333 148.068,170.716 146.166,172.57 146.615,175.188 144.264,173.952 141.912,175.188 142.361,172.57 140.459,170.716 143.088,170.333"/><polygon points="166.34,171.569 167.516,173.951 170.145,174.333 168.242,176.188 168.691,178.805 166.34,177.569 163.988,178.805 164.438,176.188 162.535,174.333 165.164,173.951"/><polygon points="153.578,156.952 154.754,159.334 157.383,159.716 155.48,161.57 155.93,164.188 153.578,162.952 151.227,164.188 151.676,161.57 149.773,159.716 152.402,159.334"/><polygon points="173.949,156.952 175.125,159.333 177.754,159.716 175.852,161.57 176.301,164.188 173.949,162.952 171.598,164.188 172.047,161.57 170.145,159.716 172.773,159.333"/><polygon points="149.773,142.48 150.949,144.862 153.578,145.244 151.676,147.098 152.125,149.716 149.773,148.48 147.422,149.716 147.871,147.098 145.969,145.244 148.598,144.862"/><polygon points="155.988,126.666 157.164,129.048 159.793,129.43 157.891,131.284 158.34,133.902 155.988,132.666 153.637,133.902 154.086,131.284 152.184,129.43 154.812,129.048"/><polygon points="163.598,141.048 164.773,143.43 167.402,143.812 165.5,145.667 165.949,148.284 163.598,147.048 161.246,148.284 161.695,145.667 159.793,143.812 162.422,143.43"/><polygon points="175.321,141.049 176.497,143.431 179.126,143.813 177.224,145.667 177.673,148.285 175.321,147.049 172.97,148.285 173.419,145.667 171.517,143.813 174.146,143.431"/><polygon points="167.402,124.187 168.578,126.568 171.207,126.951 169.305,128.805 169.754,131.422 167.402,130.187 165.051,131.422 165.5,128.805 163.598,126.951 166.227,126.568"/><polygon points="157.383,109.715 158.559,112.097 161.188,112.479 159.285,114.333 159.734,116.951 157.383,115.715 155.031,116.951 155.48,114.333 153.578,112.479 156.207,112.097"/><polygon points="177.754,113.333 178.93,115.715 181.559,116.097 179.656,117.951 180.105,120.569 177.754,119.333 175.402,120.569 175.852,117.951 173.949,116.097 176.578,115.715"/><polygon points="190.988,127.805 192.164,130.187 194.793,130.569 192.891,132.423 193.34,135.041 190.988,133.805 188.637,135.041 189.086,132.423 187.184,130.569 189.812,130.187"/><polygon points="190.988,153.334 192.164,155.716 194.793,156.098 192.891,157.952 193.34,160.57 190.988,159.334 188.637,160.57 189.086,157.952 187.184,156.098 189.812,155.716"/><polygon points="182.931,173.618 184.106,176 186.735,176.382 184.833,178.236 185.282,180.854 182.931,179.618 180.579,180.854 181.028,178.236 179.126,176.382 181.755,176"/><polygon points="167.402,185.285 168.578,187.667 171.207,188.049 169.305,189.903 169.754,192.521 167.402,191.285 165.051,192.521 165.5,189.903 163.598,188.049 166.227,187.667"/><polygon points="152.184,175.188 153.359,177.569 155.988,177.952 154.086,179.806 154.535,182.423 152.184,181.188 149.832,182.423 150.281,179.806 148.379,177.952 151.008,177.569"/><polygon points="190.54,188.902 191.716,191.284 194.345,191.667 192.442,193.521 192.892,196.138 190.54,194.902 188.188,196.138 188.638,193.521 186.735,191.667 189.364,191.284"/></g></svg>