<svg xmlns="http://www.w3.org/2000/svg" width="200" height="200" viewBox="0 0 200 200"><g fill="#fff"><polygon points="98.999,150.782 105.678,164.315 120.613,166.485 109.807,177.02 112.357,191.895 98.999,184.872 85.641,191.895 88.191,177.02 77.385,166.485 92.32,164.315"/><path d="M107.244 117.097c0 2.789-.508 3.296-3.554 3.296h-10.143c-3.043 0-3.551-.507-3.551-3.296v-28.153c0-4.312 0-6.595 2.283-7.61 4.817-2.029 32.973-5.326 32.973-29.675 0-15.979-9.132-24.349-25.62-24.349-14.709 0-26.885 7.609-29.674 7.609-1.268 0-2.284-1.014-2.792-2.537l-3.551-8.875c-.251-.508-.251-1.268-.251-1.775 0-5.328 24.349-11.415 38.299-11.415 22.316 0 44.383 9.892 44.383 40.836 0 31.959-27.135 39.822-38.802 42.864v23.08z"/></g></svg>