<?xml version="1.0" encoding="utf-8"?>
<!-- Generator: Adobe Illustrator 16.0.0, SVG Export Plug-In . SVG Version: 6.00 Build 0)  -->
<!DOCTYPE svg PUBLIC "-//W3C//DTD SVG 1.1//EN" "http://www.w3.org/Graphics/SVG/1.1/DTD/svg11.dtd">
<svg version="1.1" id="Layer_1" xmlns="http://www.w3.org/2000/svg" xmlns:xlink="http://www.w3.org/1999/xlink" x="0px" y="0px"
	 width="200px" height="200px" viewBox="0 0 200 200" enable-background="new 0 0 200 200" xml:space="preserve">
<g>
	<polygon fill="#FFFFFF" points="98.999,150.782 105.678,164.315 120.613,166.485 109.807,177.02 112.357,191.895 98.999,184.872 
		85.641,191.895 88.191,177.02 77.385,166.485 92.32,164.315 	"/>
	<path fill="#FFFFFF" d="M107.244,117.097c0,2.789-0.508,3.296-3.554,3.296H93.547c-3.043,0-3.551-0.507-3.551-3.296V88.944
		c0-4.312,0-6.595,2.283-7.61c4.817-2.029,32.973-5.326,32.973-29.675c0-15.979-9.132-24.349-25.62-24.349
		c-14.709,0-26.885,7.609-29.674,7.609c-1.268,0-2.284-1.014-2.792-2.537l-3.551-8.875c-0.251-0.508-0.251-1.268-0.251-1.775
		c0-5.328,24.349-11.415,38.299-11.415c22.316,0,44.383,9.892,44.383,40.836c0,31.959-27.135,39.822-38.802,42.864V117.097z"/>
</g>
</svg>
