<svg xmlns="http://www.w3.org/2000/svg" width="200" height="200" viewBox="0 0 200 200"><path fill="#fff" d="M168.629 137.507c9.036-11.153 14.379-24.818 14.379-39.579 0-7.244-1.296-14.221-3.67-20.772.134-1.562.218-3.138.218-4.734 0-30.458-25-55.236-55.729-55.236-5.618 0-11.042.836-16.16 2.376-5.22-1.537-10.711-2.376-16.39-2.376-19.806 0-37.434 10.006-48.616 25.477-17.087 8.446-28.319 22.595-28.319 38.6 0 5.996 1.593 11.726 4.462 17 .009.7.021 1.399.052 2.095-.04.958-.075 1.919-.075 2.888 0 35.504 27.521 64.809 62.703 68.42 7.646 3.101 15.93 4.816 24.589 4.816 20.437 0 38.819-9.475 51.472-24.491 4.226-4.336 7.954-9.196 11.084-14.484zm9.253-23.935c1.086-5.24 1.674-10.671 1.674-16.246 0-4.071-.312-8.068-.899-11.97.905 4.069 1.393 8.271 1.393 12.572-.001 5.393-.761 10.631-2.168 15.644zm-1.285-16.246c0 1.502-.056 2.99-.142 4.47-.403-2.356-.993-4.647-1.758-6.859.588-1.3 1.133-2.624 1.619-3.976.174 2.1.281 4.219.281 6.365zm-5.092-2.523c-.207.434-.43.86-.651 1.289.038-.917.068-1.835.071-2.76.205.484.394.977.58 1.471zm-48.204 64.885c-1.335.789-2.708 1.522-4.101 2.22-3.034.468-6.126.78-9.274.906 4.616-.61 9.087-1.666 13.375-3.126zm13.085-6.018c.618-.366 1.225-.744 1.83-1.127 5.399-.59 10.503-2.174 15.131-4.556-7.279 5.325-15.733 9.437-24.963 11.979 2.823-1.907 5.496-4.013 8.002-6.296zm7.614-5.217c13.957-10.959 23.659-27.076 26.232-45.488.648-.966 1.26-1.957 1.85-2.963.046 1.076.076 2.156.076 3.244 0 11.23-2.504 21.845-6.927 31.27-5.341 6.683-12.738 11.653-21.231 13.937zm-97.838-99.721c-2.603 1.969-5.062 4.11-7.356 6.413.646-1.421 1.355-2.804 2.099-4.164 3.551-3.525 7.501-6.621 11.779-9.207-2.325 2.17-4.508 4.491-6.522 6.958zm-6.947 10.236c-2.053 3.682-3.778 7.568-5.151 11.62.46-2.641 1.074-5.226 1.842-7.739 1.056-1.332 2.152-2.634 3.309-3.881zm-8.726 29.829c-.085 1.398-.142 2.804-.145 4.223-.13 1.624-.221 3.256-.221 4.908 0 3.697.347 7.322.989 10.86-3.741-3.267-6.834-6.917-9.137-10.856.845-10.329 4.116-19.993 9.271-28.435-.729 3.982-1.124 8.089-1.124 12.293.002 2.369.131 4.704.367 7.007zm25.011 59.621c7.019 5.609 15.208 10.078 24.198 13.088-3.868-.282-7.645-.912-11.29-1.892-4.197-2.784-8.097-6.013-11.634-9.633-.431-.514-.857-1.035-1.274-1.563zm20.812 15.729c2.564.316 5.168.498 7.813.498 2.145 0 4.263-.114 6.354-.323 5.189.992 10.569 1.527 16.088 1.527 1.072 0 2.136-.033 3.198-.072-6.293 2.036-12.988 3.18-19.941 3.282-4.702-1.164-9.224-2.817-13.512-4.912zm43.807.611c12.954-2.069 24.788-7.036 34.607-14.134-12.666 12.643-29.802 20.432-48.654 20.432-1.528 0-3.043-.069-4.548-.17 6.563-1.188 12.806-3.273 18.595-6.128zm55.241-81.115c-.415 1.868-.932 3.697-1.542 5.484-1.534-8.295-4.392-16.089-8.331-23.13-2.42-5.772-5.598-11.143-9.393-16.01 4.721 3.814 8.864 8.172 12.333 12.949 3.246 6.404 5.608 13.364 6.933 20.707zm-28.403-43.341c-6.979-6.123-15.178-10.88-24.188-13.869-.655-.417-1.323-.82-1.993-1.212 14.931 3.324 28.125 11.603 37.935 23.107-3.612-2.998-7.545-5.688-11.754-8.026zm-113.704 21.129c-1.845 2.361-3.533 4.843-5.061 7.431 1.682-3.502 3.654-6.83 5.9-9.937-.297.827-.574 1.664-.839 2.506zm-1.109 51.948c1.796 6.831 4.745 13.268 8.672 19.138 3.598 7.238 8.261 13.807 13.785 19.473 1.094 1.299 2.234 2.552 3.413 3.765-19.728-9.421-33.91-29.158-35.997-52.467 2.745 3.687 6.164 7.075 10.127 10.091zm144.408-42.725c-1.592-3.213-3.459-6.292-5.568-9.223-11.193-21.955-32.305-37.593-57.062-40.35 3.211-.607 6.52-.937 9.906-.937 28.498 0 51.778 22.501 52.724 50.51zm-85.275-50.51c3.08 0 6.103.259 9.056.75-8.322.675-16.257 2.792-23.575 6.128-4.659 1.683-9.085 3.85-13.228 6.43-4.148 1.423-8.109 3.263-11.844 5.473-1.091.371-2.172.758-3.229 1.171 10.644-12.255 25.898-19.952 42.82-19.952zm-51.995 27.689c-.26.444-.511.895-.762 1.346-10.906 10.966-18.105 25.812-19.482 42.353-1.125-3.296-1.737-6.733-1.737-10.27 0-13.384 8.548-25.379 21.981-33.429zm-8.736 87.96c8.12 11.967 19.907 21.101 33.677 25.648 2.537 2.057 5.213 3.927 8.007 5.602-17.809-4.462-32.777-15.946-41.684-31.25z"/></svg>