<?xml version="1.0" encoding="utf-8"?>
<!-- Generator: Adobe Illustrator 16.0.0, SVG Export Plug-In . SVG Version: 6.00 Build 0)  -->
<!DOCTYPE svg PUBLIC "-//W3C//DTD SVG 1.1//EN" "http://www.w3.org/Graphics/SVG/1.1/DTD/svg11.dtd">
<svg version="1.1" id="Layer_1" xmlns="http://www.w3.org/2000/svg" xmlns:xlink="http://www.w3.org/1999/xlink" x="0px" y="0px"
	 width="200px" height="200px" viewBox="0 0 200 200" enable-background="new 0 0 200 200" xml:space="preserve">
<path fill="#FFFFFF" d="M168.629,137.507c9.036-11.153,14.379-24.818,14.379-39.579c0-7.244-1.296-14.221-3.67-20.772
	c0.134-1.562,0.218-3.138,0.218-4.734c0-30.458-25-55.236-55.729-55.236c-5.618,0-11.042,0.836-16.16,2.376
	c-5.22-1.537-10.711-2.376-16.39-2.376c-19.806,0-37.434,10.006-48.616,25.477c-17.087,8.446-28.319,22.595-28.319,38.6
	c0,5.996,1.593,11.726,4.462,17c0.009,0.7,0.021,1.399,0.052,2.095c-0.04,0.958-0.075,1.919-0.075,2.888
	c0,35.504,27.521,64.809,62.703,68.42c7.646,3.101,15.93,4.816,24.589,4.816c20.437,0,38.819-9.475,51.472-24.491
	C161.771,147.655,165.499,142.795,168.629,137.507z M177.882,113.572c1.086-5.24,1.674-10.671,1.674-16.246
	c0-4.071-0.312-8.068-0.899-11.97c0.905,4.069,1.393,8.271,1.393,12.572C180.049,103.321,179.289,108.559,177.882,113.572z
	 M176.597,97.326c0,1.502-0.056,2.99-0.142,4.47c-0.403-2.356-0.993-4.647-1.758-6.859c0.588-1.3,1.133-2.624,1.619-3.976
	C176.49,93.061,176.597,95.18,176.597,97.326z M171.505,94.803c-0.207,0.434-0.43,0.86-0.651,1.289
	c0.038-0.917,0.068-1.835,0.071-2.76C171.13,93.816,171.319,94.309,171.505,94.803z M123.301,159.688
	c-1.335,0.789-2.708,1.522-4.101,2.22c-3.034,0.468-6.126,0.78-9.274,0.906C114.542,162.204,119.013,161.148,123.301,159.688z
	 M136.386,153.67c0.618-0.366,1.225-0.744,1.83-1.127c5.399-0.59,10.503-2.174,15.131-4.556
	c-7.279,5.325-15.733,9.437-24.963,11.979C131.207,158.059,133.88,155.953,136.386,153.67z M144,148.453
	c13.957-10.959,23.659-27.076,26.232-45.488c0.648-0.966,1.26-1.957,1.85-2.963c0.046,1.076,0.076,2.156,0.076,3.244
	c0,11.23-2.504,21.845-6.927,31.27C159.89,141.199,152.493,146.169,144,148.453z M46.162,48.732
	c-2.603,1.969-5.062,4.11-7.356,6.413c0.646-1.421,1.355-2.804,2.099-4.164c3.551-3.525,7.501-6.621,11.779-9.207
	C50.359,43.944,48.176,46.265,46.162,48.732z M39.215,58.968c-2.053,3.682-3.778,7.568-5.151,11.62
	c0.46-2.641,1.074-5.226,1.842-7.739C36.962,61.517,38.058,60.215,39.215,58.968z M30.489,88.797
	c-0.085,1.398-0.142,2.804-0.145,4.223c-0.13,1.624-0.221,3.256-0.221,4.908c0,3.697,0.347,7.322,0.989,10.86
	c-3.741-3.267-6.834-6.917-9.137-10.856c0.845-10.329,4.116-19.993,9.271-28.435c-0.729,3.982-1.124,8.089-1.124,12.293
	C30.124,84.159,30.253,86.494,30.489,88.797z M55.5,148.418c7.019,5.609,15.208,10.078,24.198,13.088
	c-3.868-0.282-7.645-0.912-11.29-1.892c-4.197-2.784-8.097-6.013-11.634-9.633C56.343,149.467,55.917,148.946,55.5,148.418z
	 M76.312,164.147c2.564,0.316,5.168,0.498,7.813,0.498c2.145,0,4.263-0.114,6.354-0.323c5.189,0.992,10.569,1.527,16.088,1.527
	c1.072,0,2.136-0.033,3.198-0.072c-6.293,2.036-12.988,3.18-19.941,3.282C85.122,167.895,80.6,166.242,76.312,164.147z
	 M120.119,164.758c12.954-2.069,24.788-7.036,34.607-14.134c-12.666,12.643-29.802,20.432-48.654,20.432
	c-1.528,0-3.043-0.069-4.548-0.17C108.087,169.698,114.33,167.613,120.119,164.758z M175.36,83.643
	c-0.415,1.868-0.932,3.697-1.542,5.484c-1.534-8.295-4.392-16.089-8.331-23.13c-2.42-5.772-5.598-11.143-9.393-16.01
	c4.721,3.814,8.864,8.172,12.333,12.949C171.673,69.34,174.035,76.3,175.36,83.643z M146.957,40.302
	c-6.979-6.123-15.178-10.88-24.188-13.869c-0.655-0.417-1.323-0.82-1.993-1.212c14.931,3.324,28.125,11.603,37.935,23.107
	C155.099,45.33,151.166,42.64,146.957,40.302z M33.253,61.431c-1.845,2.361-3.533,4.843-5.061,7.431
	c1.682-3.502,3.654-6.83,5.9-9.937C33.795,59.752,33.518,60.589,33.253,61.431z M32.144,113.379
	c1.796,6.831,4.745,13.268,8.672,19.138c3.598,7.238,8.261,13.807,13.785,19.473c1.094,1.299,2.234,2.552,3.413,3.765
	c-19.728-9.421-33.91-29.158-35.997-52.467C24.762,106.975,28.181,110.363,32.144,113.379z M176.552,70.654
	c-1.592-3.213-3.459-6.292-5.568-9.223c-11.193-21.955-32.305-37.593-57.062-40.35c3.211-0.607,6.52-0.937,9.906-0.937
	C152.326,20.144,175.606,42.645,176.552,70.654z M91.277,20.144c3.08,0,6.103,0.259,9.056,0.75
	c-8.322,0.675-16.257,2.792-23.575,6.128c-4.659,1.683-9.085,3.85-13.228,6.43c-4.148,1.423-8.109,3.263-11.844,5.473
	c-1.091,0.371-2.172,0.758-3.229,1.171C59.101,27.841,74.355,20.144,91.277,20.144z M39.282,47.833
	c-0.26,0.444-0.511,0.895-0.762,1.346C27.614,60.145,20.415,74.991,19.038,91.532c-1.125-3.296-1.737-6.733-1.737-10.27
	C17.301,67.878,25.849,55.883,39.282,47.833z M30.546,135.793c8.12,11.967,19.907,21.101,33.677,25.648
	c2.537,2.057,5.213,3.927,8.007,5.602C54.421,162.581,39.453,151.097,30.546,135.793z"/>
</svg>
