<?xml version="1.0" encoding="utf-8"?>
<!-- Generator: Adobe Illustrator 16.0.0, SVG Export Plug-In . SVG Version: 6.00 Build 0)  -->
<!DOCTYPE svg PUBLIC "-//W3C//DTD SVG 1.1//EN" "http://www.w3.org/Graphics/SVG/1.1/DTD/svg11.dtd">
<svg version="1.1" id="Layer_1" xmlns="http://www.w3.org/2000/svg" xmlns:xlink="http://www.w3.org/1999/xlink" x="0px" y="0px"
	 width="200px" height="200px" viewBox="0 0 200 200" enable-background="new 0 0 200 200" xml:space="preserve">
<g>
	
		<rect x="113.402" y="13.833" transform="matrix(0.9799 -0.1994 0.1994 0.9799 -6.9911 29.7464)" fill="#FFFFFF" width="61.529" height="71.488"/>
	
		<rect x="61.136" y="30.449" transform="matrix(0.9799 -0.1994 0.1994 0.9799 -9.6699 20.9143)" fill="#FFFFFF" width="75.71" height="56.025"/>
	
		<rect x="32.202" y="45.422" transform="matrix(0.9799 -0.1994 0.1994 0.9799 -11.4247 15.2621)" fill="#FFFFFF" width="75.711" height="37.855"/>
	
		<rect x="8.157" y="57.823" transform="matrix(0.9799 -0.1995 0.1995 0.9799 -15.0988 3.9023)" fill="#FFFFFF" width="7.316" height="38.109"/>
	
		<rect x="13.767" y="60.576" transform="matrix(0.9799 -0.1994 0.1994 0.9799 -14.518 5.7368)" fill="#FFFFFF" width="14.924" height="28.772"/>
	<polygon fill="#FFFFFF" points="120.811,191.583 128.677,191.583 110.439,101.869 102.569,104.594 	"/>
	<polygon fill="#FFFFFF" points="73.799,191.583 65.094,191.583 78.387,101.869 86.256,104.594 	"/>
	<polygon fill="#FFFFFF" points="72.599,109.67 71.188,101.464 115.277,93.662 116.69,101.869 	"/>
	<path fill="#FFFFFF" d="M195.568,45.315c0-17.794-14.427-32.221-32.218-32.221c-17.796,0-32.221,14.426-32.221,32.221
		c0,17.793,14.425,32.218,32.221,32.218C181.142,77.534,195.568,63.109,195.568,45.315z"/>
</g>
</svg>
