<svg xmlns="http://www.w3.org/2000/svg" width="200" height="200" viewBox="0 0 200 200"><g fill="#fff"><rect x="113.402" y="13.833" transform="matrix(.98 -.199 .199 .98 -6.991 29.746)" width="61.529" height="71.488"/><rect x="61.136" y="30.449" transform="matrix(.98 -.199 .199 .98 -9.67 20.914)" width="75.71" height="56.025"/><rect x="32.202" y="45.422" transform="matrix(.98 -.199 .199 .98 -11.425 15.262)" width="75.711" height="37.855"/><rect x="8.157" y="57.823" transform="matrix(.98 -.2 .2 .98 -15.099 3.902)" width="7.316" height="38.109"/><rect x="13.767" y="60.576" transform="matrix(.98 -.199 .199 .98 -14.518 5.737)" width="14.924" height="28.772"/><polygon points="120.811,191.583 128.677,191.583 110.439,101.869 102.569,104.594"/><polygon points="73.799,191.583 65.094,191.583 78.387,101.869 86.256,104.594"/><polygon points="72.599,109.67 71.188,101.464 115.277,93.662 116.69,101.869"/><path d="M195.568 45.315c0-17.794-14.427-32.221-32.218-32.221-17.796 0-32.221 14.426-32.221 32.221 0 17.793 14.425 32.218 32.221 32.218 17.792.001 32.218-14.424 32.218-32.218z"/></g></svg>