<?xml version="1.0" encoding="utf-8"?>
<!-- Generator: Adobe Illustrator 16.0.0, SVG Export Plug-In . SVG Version: 6.00 Build 0)  -->
<!DOCTYPE svg PUBLIC "-//W3C//DTD SVG 1.1//EN" "http://www.w3.org/Graphics/SVG/1.1/DTD/svg11.dtd">
<svg version="1.1" id="Layer_1" xmlns="http://www.w3.org/2000/svg" xmlns:xlink="http://www.w3.org/1999/xlink" x="0px" y="0px"
	 width="200px" height="200px" viewBox="0 0 200 200" enable-background="new 0 0 200 200" xml:space="preserve">
<g>
	<path fill="#FFFFFF" d="M100,50.772c-25.957,0-47.074,21.118-47.074,47.075S74.043,144.921,100,144.921
		s47.074-21.118,47.074-47.075S125.957,50.772,100,50.772z"/>
	<path fill="#FFFFFF" d="M83.105,33.103c2.839-0.929,4.707-4.41,3.877-7.219c-0.865-2.93-4.111-4.538-7.185-3.56
		c-3.261,1.037-4.783,3.804-3.835,6.972C76.845,32.246,80.223,34.047,83.105,33.103z"/>
	<path fill="#FFFFFF" d="M36.149,148.303c-0.308,0.033-0.365,2.385-0.539,3.666c1.697,0.141,3.393,0.283,5.717,0.475
		c0.107-1.761,0.352-3.64,0.204-3.671C39.765,148.398,37.92,148.113,36.149,148.303z"/>
	<path fill="#FFFFFF" d="M161.564,45.833c-1.657-1.505-4.037-2.013-5.463,0.058c-0.613,0.89-0.1,3.748,0.711,4.173
		c1.537,0.808,3.656,0.506,5.535,0.667c0.264-0.417,0.528-0.835,0.791-1.253C162.638,48.238,162.457,46.644,161.564,45.833z"/>
	<path fill="#FFFFFF" d="M125.179,17.055c-1.843-0.516-3.501-0.98-5.328-1.492c-1.348,4.812-2.608,9.315-3.871,13.823
		c1.892,0.53,3.544,0.993,5.328,1.492C122.617,26.2,123.878,21.699,125.179,17.055z"/>
	<path fill="#FFFFFF" d="M151.522,40.429c0.605-0.84,0.058-3.313-0.817-4.25c-1.618-1.736-4.011-1.517-5.453,0.339
		c-0.631,0.811-0.028,2.581,0,3.514C147.875,41.604,150.055,42.46,151.522,40.429z"/>
	<path fill="#FFFFFF" d="M170.709,118.905c-0.553,1.434-1.125,2.921-1.859,4.829c4.026,0.751,7.762,1.45,11.516,2.152
		C180.944,121.306,178.727,119.746,170.709,118.905z"/>
	<g>
		<path fill="#FFFFFF" d="M101.5,4.866v31.672c10.45,0.253,20.256,3.126,28.791,7.995l15.849-27.45
			C132.948,9.531,117.729,5.123,101.5,4.866z M124.982,21.895c-0.061,0.543-0.295,1.067-0.435,1.603
			c-0.959,3.681-3.394,7.644-1.744,9.604c0.484,0.286,0.922,0.575,1.297,0.855c-0.591-0.209-1.002-0.503-1.297-0.855
			c-3.04-1.794-8.128-3.49-14.002-2.376c-0.03-0.299-0.058-0.598-0.085-0.898c1.025-0.186,2.102-0.666,3.068-0.501
			c2.391,0.408,3.043-0.851,3.532-2.819c0.956-3.862,2.112-7.674,3.185-11.503c-1.654-1.282-3.157-2.448-4.66-3.614
			c0.122-0.255,0.246-0.509,0.369-0.765c5.422,4.278,11.523,5.921,18.289,5.366c-0.494,0.176-1.016,0.557-1.479,0.497
			C126.875,15.949,125.375,18.271,124.982,21.895z"/>
		<path fill="#FFFFFF" d="M154.709,70.146c4.234,8.328,6.638,17.736,6.638,27.701c0,0.219-0.015,0.435-0.017,0.653h31.662
			c0.001-0.218,0.008-0.435,0.008-0.653c0-15.741-3.916-30.566-10.819-43.562L154.709,70.146z M179.703,80.107
			c-1.206-0.009-2.452-0.554-3.607-0.378c-1.565,0.237-3.062,0.934-4.588,1.434c0.646,1.758,1.2,3.557,1.987,5.25
			c0.258,0.552,1.116,0.825,2.082,1.491c-0.884,0.4-1.332,0.781-1.772,0.771c-2.256-0.047-4.378-2.93-4.564-6.092
			c-0.17-2.888,1.308-4.944,4.004-5.087c1.964-0.103,3.963,0.447,5.925,0.337c0.982-0.057,2.797-1.197,2.734-1.408
			c-0.507-1.73-1.267-3.421-2.229-4.946c-0.141-0.224-1.884,0.303-2.667,0.816c-0.995,0.655-1.74,1.679-2.643,2.491
			c-1.662,1.495-3.493,1.538-5.069,0.038c-2.021-1.926-2.767-4.459-1.39-6.949c1.093-1.972,3.088-2.614,5.895-1.329
			c-0.965,0.588-1.612,0.859-2.098,1.307c-0.78,0.721-2.043,1.564-2.034,2.344c0.014,1.125,0.743,2.575,1.644,3.215
			c0.449,0.318,2.175-0.633,2.941-1.394c1.574-1.563,3.14-4.038,5.4-2.82c1.878,1.012,3.405,3.351,4.254,5.44
			C185.116,77.615,182.97,80.129,179.703,80.107z"/>
		<path fill="#FFFFFF" d="M19.634,144.667l27.446-15.846c-4.766-8.11-7.723-17.399-8.309-27.322H7.078
			C7.685,117.2,12.181,131.901,19.634,144.667z M27.824,110.031c-0.262,2.488-0.663,4.77,2.143,6.29
			c0.514,0.279,0.219,2.051,0.329,3.588c0.506,0.439,1.401,1.217,2.384,2.069c-0.359,0.96-0.701,1.873-1.063,2.839
			c0.942,0.804,1.879,1.604,3.07,2.619c-4.136,0.347-5.506-1.392-4.271-5.041c-1.164-1.199-3.535-2.097-1.926-4.613
			c0.111-0.174-0.826-0.906-1.105-1.464c-0.574-1.152-1.383-2.334-1.477-3.55c-0.354-4.635-0.263-4.643-2.189-7.156
			C26.725,105.377,28.163,106.801,27.824,110.031z M24.543,111.411c-0.721,2.979-0.154,4.918,2.753,6.395
			c-0.761,1.172-1.283,1.976-1.936,2.979c1.943,1.214,4.613,2.286,1.735,5.149c1.222,0.882,2.32,1.677,3.42,2.47
			c-0.177,0.347-0.354,0.695-0.53,1.043c-1.684-0.792-3.365-1.584-5.202-2.448c0.607-1.381,1.038-2.359,1.505-3.423
			c-1.085-0.784-2.146-1.551-3.379-2.442c0.59-0.962,1.136-1.853,1.778-2.9c-2.16-1.596-2.851-3.67-1.917-6.31
			c1.217-3.439-1.525-4.426-4.198-5.544C22.692,104.991,25.513,107.405,24.543,111.411z"/>
		<path fill="#FFFFFF" d="M128.403,152.196c-8.081,4.241-17.216,6.725-26.903,6.959v31.672c15.463-0.245,30.01-4.257,42.76-11.168
			L128.403,152.196z M118.852,173.117c-0.246-1.828-0.814-3.697-1.659-5.33c-0.652-1.26-1.963-2.179-2.98-3.249
			c-0.915,1.12-1.829,2.239-2.744,3.359c0.141,0.162,0.281,0.325,0.423,0.487c0.837-0.237,1.677-0.476,2.514-0.713
			c0.184,0.208,0.367,0.415,0.551,0.622c-1.662,2.766-3.326,5.529-5.582,9.28c-0.881-4.399-1.573-7.853-2.402-11.987
			c1.209,0.366,2.021,0.613,3.025,0.917c0.193-0.386,0.457-0.973,0.775-1.528c1.956-3.41,5.092-3.845,6.877-0.346
			c1.903,3.734,2.659,8.062,3.82,12.16c0.29,1.021,0.204,2.149,0.307,3.404c2.523-0.731,3.266-1.919,2.531-4.38
			c-0.947-3.174-1.488-6.473-2.109-9.736c-0.147-0.788,0.084-1.647,0.14-2.474c0.443-0.048,0.888-0.097,1.331-0.146
			c1.129,5.05,2.261,10.1,3.438,15.367c1.046-0.349,1.953-0.652,2.842-0.951c0.189-1.312,0.373-2.582,0.555-3.85
			c-2.422-3.779-2.803-8.005-3.55-12.152c0.61-0.139,1.218-0.279,1.826-0.419c0.738,3.835,1.476,7.67,2.213,11.506
			c0.959,1.934,1.917,3.867,3.145,6.347c-4.425,1.254-9.304,2.638-14.371,4.074C119.503,180.247,119.331,176.661,118.852,173.117z"
			/>
		<path fill="#FFFFFF" d="M38.67,98.5c-0.002-0.218-0.017-0.434-0.017-0.653c0-9.965,2.403-19.374,6.638-27.702L17.82,54.285
			C10.916,67.281,7,82.105,7,97.847c0,0.218,0.007,0.435,0.008,0.653H38.67z M14.796,79.487c2.347-0.854,4.865-1.234,7.51-1.85
			c1.279-2.181,1.824-4.407-1.376-5.95c-0.57-0.277-1.188-0.79-1.425-1.346c-0.404-0.956-0.524-2.031-0.765-3.056
			c0.98,0.293,2.042,0.44,2.919,0.922c0.925,0.509,1.674,1.339,2.711,2.206c0.588-1.536,1.045-2.731,1.559-4.074
			c0.891,0.26,1.691,0.495,2.688,0.787c-0.25,1.411-0.492,2.787-0.833,4.708c2.075-0.584,3.817-1.202,5.611-1.531
			c0.991-0.182,2.071,0.118,3.111,0.203c-0.626,0.863-1.073,2.067-1.919,2.515c-1.434,0.762-3.16,1.553-4.689,1.427
			c-3.515-0.29-4.037,1.758-4.182,3.941c2.043,2.252,3.997,4.168,5.611,6.336c0.485,0.65,0.021,2.009-0.008,3.042
			c-0.845-0.447-1.852-0.732-2.502-1.376c-1.288-1.274-2.379-2.749-3.439-4.006c-2.284,0.933-0.861,5.937-5.16,3.548
			c0.31-1.407,0.613-2.785,1.077-4.894c-2.057,0.499-3.754,1.03-5.492,1.288c-1.039,0.153-2.144-0.123-3.22-0.206
			C13.31,81.211,13.862,79.827,14.796,79.487z"/>
		<path fill="#FFFFFF" d="M68.975,150.737c-8.169-4.81-15.127-11.454-20.312-19.366l-27.473,15.861
			c7.984,12.715,18.959,23.36,31.939,30.95L68.975,150.737z M43.89,164.146c0.746-3.889,1.801-7.76,0.101-11.986
			c-4.424,3.447-7.451,3.988-9.779,1.801c-2.073-1.944-2.267-4.19-0.646-6.557c1.956-2.857,5.059-3.223,10.083-0.83
			c0.206-3.817,0.402-7.407,0.597-10.997c0.279-0.092,0.559-0.183,0.838-0.275c0.473,0.778,1.137,1.503,1.365,2.346
			c0.253,0.936,0.332,2.036,0.098,2.966c-1.63,6.48,0.686,12.699,1.166,19.718c3.089-2.946,5.857-5.586,8.626-8.227
			c0.303,0.25,0.604,0.5,0.906,0.752c-1.028,1.474-1.927,3.062-3.11,4.398c-2.494,2.819-5.094,5.546-7.754,8.21
			c-0.503,0.503-1.479,0.532-2.235,0.779C44.049,165.544,43.763,164.805,43.89,164.146z"/>
		<path fill="#FFFFFF" d="M46.716,67.504c4.97-8.692,11.998-16.054,20.424-21.421L51.283,18.619
			c-13.234,8.155-24.273,19.53-32.018,33.037L46.716,67.504z M40.646,41.568c-1.582-3.739-1.229-6.697,1.647-8.778
			c2.041-1.477,4.379-1.409,6.509,0.084c2.011,1.41,2.952,3.288,1.955,5.887c-0.14-0.662-0.23-1.34-0.429-1.983
			c-0.886-2.882-3.543-4.474-6.102-3.688c-2.714,0.832-4.209,3.852-2.98,6.715c0.668,1.558,1.87,2.956,3.062,4.204
			c2.332,2.438,4.826,4.721,7.253,7.068c-0.259,0.296-0.518,0.593-0.777,0.89c-2.341-2.078-4.661-4.18-7.03-6.227
			c-1.311-1.132-2.561-2.729-4.089-3.112c-1.706-0.427-4.115-0.284-5.424,0.684c-0.97,0.717-1.353,3.47-0.759,4.732
			c0.664,1.414,2.656,2.295,4.213,3.149c0.643,0.354,1.654,0.036,2.469,0.394c-2.238,1.031-4.817,1.193-6.205-0.926
			c-1.182-1.806-2.107-4.695-1.494-6.561C33.583,40.7,36.828,40.104,40.646,41.568z"/>
		<path fill="#FFFFFF" d="M151.338,131.371c-5.186,7.913-12.145,14.557-20.312,19.367l15.846,27.445
			c12.98-7.59,23.955-18.235,31.939-30.95L151.338,131.371z M140.977,154.902c0.008-0.397,0.016-0.795,0.025-1.193
			c5.346-5.098,10.69-10.196,16.037-15.294c0.331,0.06,0.662,0.119,0.993,0.18c-0.094,0.935,0.176,2.239-0.339,2.752
			c-4.549,4.529-9.197,8.963-13.938,13.291C143.205,155.14,141.922,154.833,140.977,154.902z M157.924,158.39
			c-3.307,2.382-6.102,2.078-9.32-0.675c-1.729,0.258-3.078,0.458-4.428,0.659c-0.103-0.375-0.203-0.75-0.305-1.125
			c1.799-1.715,3.596-3.429,5.438-5.186c1.748,1.5,1.17,5.612,4.658,4.582c1.63-0.481,3.882-2.434,3.943-3.805
			c0.087-1.97-1.569-4.017-2.705-6.528c0.701-0.669,1.977-2.053,3.438-3.199c0.607-0.476,1.61-0.446,2.435-0.647
			c-0.147,0.899-0.199,1.83-0.481,2.685c-0.156,0.473-0.698,0.817-1.037,1.186C162.186,152.319,161.717,155.662,157.924,158.39z"/>
		<path fill="#FFFFFF" d="M192.922,101.5h-31.693c-0.586,9.922-3.543,19.212-8.309,27.321l27.445,15.846
			C187.819,131.901,192.315,117.2,192.922,101.5z M163.336,116.3c2.112-0.409,4.225-0.82,6.338-1.23
			c-0.102,0.197-0.203,0.394-0.305,0.591c3.943,1.232,7.887,2.464,12.006,3.751c-0.232-2.792-0.229-2.809-5.66-4.332
			c-2.409-0.676-4.843-1.267-7.266-1.896c0.078-0.516,0.155-1.032,0.234-1.547c1.411,0.181,2.844,0.264,4.229,0.567
			c1.727,0.376,3.42,0.912,5.117,1.417c1.677,0.5,3.34,1.046,5.573,1.75c-0.096-1.323-0.167-2.298-0.238-3.274
			c-4.765-1.237-9.528-2.474-14.819-3.847c0.768-1.152,1.156-1.931,1.279-1.891c4.238,1.368,8.45,2.815,12.666,4.252
			c1.033-0.444,2.071-0.873,3.096-1.335c0.521-0.236,1.013-0.534,1.518-0.804c0.104,0.574,0.426,1.212,0.275,1.709
			c-0.661,2.19-1.502,4.328-2.19,6.511c-0.481,1.531-0.823,3.106-1.33,5.059c-0.119,0.014-0.712,0.083-0.975,0.115
			c-0.178,2.018-0.351,3.977-0.575,6.531c-5.598-1.086-10.71-2.08-16.128-3.132c0.853-2.567,1.538-4.625,2.289-6.886
			c-1.842-0.479-3.532-0.917-5.224-1.355C163.276,116.782,163.306,116.541,163.336,116.3z"/>
		<path fill="#FFFFFF" d="M132.86,46.083c8.426,5.368,15.454,12.729,20.424,21.421l27.45-15.849
			c-7.744-13.507-18.783-24.882-32.018-33.037L132.86,46.083z M160.33,51.967c-5.938,1.721-14.348-3.167-15.932-9.998
			c3.081,4.173,5.701,8.047,9.996,8.708c0.418-2.161,0.203-4.698,1.367-5.916c0.944-0.99,3.82-1.007,5.33-0.323
			c1.348,0.609,2.764,2.797,2.707,4.232C163.753,49.848,161.764,51.551,160.33,51.967z M163.084,44.483
			c-1.701-2.06-2.975-3.999-4.64-5.502c-1.654-1.495-3.703-2.551-5.088-3.472c-0.544,2.293-0.518,4.65-1.655,6.087
			c-0.717,0.907-3.512,1.08-4.76,0.421c-1.478-0.782-3.105-2.8-3.132-4.31c-0.021-1.168,2.142-3.052,3.645-3.453
			C153.59,32.616,161.663,37.948,163.084,44.483z"/>
		<path fill="#FFFFFF" d="M98.5,190.828v-31.672c-9.688-0.234-18.822-2.719-26.904-6.96L55.74,179.659
			C68.489,186.57,83.037,190.583,98.5,190.828z M73.029,170.451c-0.137,0.751-0.24,1.512-0.425,2.251
			c-0.1,0.4-0.337,0.766-0.379,0.857c4.308-2.245,8.757-4.565,13.374-6.972c-0.61-1.226-1.261-2.38-1.749-3.598
			c-0.152-0.379,0.132-0.933,0.216-1.407c0.521,0.17,1.345,0.195,1.508,0.536c0.568,1.183,0.907,2.477,1.137,3.15
			c3.236,0.328,4.726-3.387,7.809-1.118c-2.148,1.311-3.91,2.386-5.644,3.444c2.009,5.055,2.009,5.055,0.354,6.156
			c-0.666-1.659-1.32-3.289-1.865-4.646c-5.142,2.708-9.843,5.185-14.92,7.858c1.808-0.02,3.206-0.035,4.638-0.05
			c-0.512,2.187-4.006,2.928-12.452,2.649c2.233-2.877,4.235-5.555,6.366-8.128C71.432,170.906,72.339,170.768,73.029,170.451z"/>
		<path fill="#FFFFFF" d="M69.709,44.533c8.535-4.869,18.341-7.742,28.791-7.995V4.866C82.271,5.123,67.052,9.531,53.86,17.083
			L69.709,44.533z M78.882,20.143c4.27-1.358,4.345-4.692,4.065-8.959c2.786,2.512,2.809,3.846,0.826,8.508
			c5.477,3.826,6.875,7.837,4.201,12.063c-2.179,3.449-6.55,4.65-10.18,2.797c-4.244-2.167-5.262-6.337-3.006-11.395
			c-1.689-2.004-3.305-3.855-4.811-5.792c-0.186-0.239,0.228-0.941,0.524-2.011C72.986,18.003,74.557,21.52,78.882,20.143z"/>
	</g>
</g>
</svg>
