<svg xmlns="http://www.w3.org/2000/svg" width="200" height="200" viewBox="0 0 200 200"><g fill="#fff"><path d="M100 50.772c-25.957 0-47.074 21.118-47.074 47.075s21.117 47.074 47.074 47.074 47.074-21.118 47.074-47.075-21.117-47.074-47.074-47.074zM83.105 33.103c2.839-.929 4.707-4.41 3.877-7.219-.865-2.93-4.111-4.538-7.185-3.56-3.261 1.037-4.783 3.804-3.835 6.972.883 2.95 4.261 4.751 7.143 3.807zM36.149 148.303c-.308.033-.365 2.385-.539 3.666l5.717.475c.107-1.761.352-3.64.204-3.671-1.766-.375-3.611-.66-5.382-.47zM161.564 45.833c-1.657-1.505-4.037-2.013-5.463.058-.613.89-.1 3.748.711 4.173 1.537.808 3.656.506 5.535.667l.791-1.253c-.5-1.24-.681-2.834-1.574-3.645zM125.179 17.055l-5.328-1.492-3.871 13.823 5.328 1.492c1.309-4.678 2.57-9.179 3.871-13.823zM151.522 40.429c.605-.84.058-3.313-.817-4.25-1.618-1.736-4.011-1.517-5.453.339-.631.811-.028 2.581 0 3.514 2.623 1.572 4.803 2.428 6.27.397zM170.709 118.905l-1.859 4.829c4.026.751 7.762 1.45 11.516 2.152.578-4.58-1.639-6.14-9.657-6.981zM101.5 4.866v31.672c10.45.253 20.256 3.126 28.791 7.995l15.849-27.45c-13.192-7.552-28.411-11.96-44.64-12.217zm23.482 17.029c-.061.543-.295 1.067-.435 1.603-.959 3.681-3.394 7.644-1.744 9.604.484.286.922.575 1.297.855-.591-.209-1.002-.503-1.297-.855-3.04-1.794-8.128-3.49-14.002-2.376l-.085-.898c1.025-.186 2.102-.666 3.068-.501 2.391.408 3.043-.851 3.532-2.819.956-3.862 2.112-7.674 3.185-11.503l-4.66-3.614.369-.765c5.422 4.278 11.523 5.921 18.289 5.366-.494.176-1.016.557-1.479.497-4.145-.54-5.645 1.782-6.038 5.406zM154.709 70.146c4.234 8.328 6.638 17.736 6.638 27.701l-.017.653h31.662l.008-.653c0-15.741-3.916-30.566-10.819-43.562l-27.472 15.861zm24.994 9.961c-1.206-.009-2.452-.554-3.607-.378-1.565.237-3.062.934-4.588 1.434.646 1.758 1.2 3.557 1.987 5.25.258.552 1.116.825 2.082 1.491-.884.4-1.332.781-1.772.771-2.256-.047-4.378-2.93-4.564-6.092-.17-2.888 1.308-4.944 4.004-5.087 1.964-.103 3.963.447 5.925.337.982-.057 2.797-1.197 2.734-1.408-.507-1.73-1.267-3.421-2.229-4.946-.141-.224-1.884.303-2.667.816-.995.655-1.74 1.679-2.643 2.491-1.662 1.495-3.493 1.538-5.069.038-2.021-1.926-2.767-4.459-1.39-6.949 1.093-1.972 3.088-2.614 5.895-1.329-.965.588-1.612.859-2.098 1.307-.78.721-2.043 1.564-2.034 2.344.014 1.125.743 2.575 1.644 3.215.449.318 2.175-.633 2.941-1.394 1.574-1.563 3.14-4.038 5.4-2.82 1.878 1.012 3.405 3.351 4.254 5.44 1.208 2.977-.938 5.491-4.205 5.469zM19.634 144.667l27.446-15.846c-4.766-8.11-7.723-17.399-8.309-27.322h-31.693c.607 15.701 5.103 30.402 12.556 43.168zm8.19-34.636c-.262 2.488-.663 4.77 2.143 6.29.514.279.219 2.051.329 3.588l2.384 2.069-1.063 2.839 3.07 2.619c-4.136.347-5.506-1.392-4.271-5.041-1.164-1.199-3.535-2.097-1.926-4.613.111-.174-.826-.906-1.105-1.464-.574-1.152-1.383-2.334-1.477-3.55-.354-4.635-.263-4.643-2.189-7.156 3.006-.235 4.444 1.189 4.105 4.419zm-3.281 1.38c-.721 2.979-.154 4.918 2.753 6.395l-1.936 2.979c1.943 1.214 4.613 2.286 1.735 5.149l3.42 2.47-.53 1.043-5.202-2.448 1.505-3.423-3.379-2.442 1.778-2.9c-2.16-1.596-2.851-3.67-1.917-6.31 1.217-3.439-1.525-4.426-4.198-5.544 4.12-1.389 6.941 1.025 5.971 5.031zM128.403 152.196c-8.081 4.241-17.216 6.725-26.903 6.959v31.672c15.463-.245 30.01-4.257 42.76-11.168l-15.857-27.463zm-9.551 20.921c-.246-1.828-.814-3.697-1.659-5.33-.652-1.26-1.963-2.179-2.98-3.249l-2.744 3.359.423.487 2.514-.713.551.622c-1.662 2.766-3.326 5.529-5.582 9.28-.881-4.399-1.573-7.853-2.402-11.987l3.025.917c.193-.386.457-.973.775-1.528 1.956-3.41 5.092-3.845 6.877-.346 1.903 3.734 2.659 8.062 3.82 12.16.29 1.021.204 2.149.307 3.404 2.523-.731 3.266-1.919 2.531-4.38-.947-3.174-1.488-6.473-2.109-9.736-.147-.788.084-1.647.14-2.474l1.331-.146c1.129 5.05 2.261 10.1 3.438 15.367l2.842-.951.555-3.85c-2.422-3.779-2.803-8.005-3.55-12.152l1.826-.419c.738 3.835 1.476 7.67 2.213 11.506.959 1.934 1.917 3.867 3.145 6.347l-14.371 4.074c-.265-3.132-.437-6.718-.916-10.262zM38.67 98.5l-.017-.653c0-9.965 2.403-19.374 6.638-27.702l-27.471-15.86c-6.904 12.996-10.82 27.82-10.82 43.562l.008.653h31.662zm-23.874-19.013c2.347-.854 4.865-1.234 7.51-1.85 1.279-2.181 1.824-4.407-1.376-5.95-.57-.277-1.188-.79-1.425-1.346-.404-.956-.524-2.031-.765-3.056.98.293 2.042.44 2.919.922.925.509 1.674 1.339 2.711 2.206l1.559-4.074 2.688.787-.833 4.708c2.075-.584 3.817-1.202 5.611-1.531.991-.182 2.071.118 3.111.203-.626.863-1.073 2.067-1.919 2.515-1.434.762-3.16 1.553-4.689 1.427-3.515-.29-4.037 1.758-4.182 3.941 2.043 2.252 3.997 4.168 5.611 6.336.485.65.021 2.009-.008 3.042-.845-.447-1.852-.732-2.502-1.376-1.288-1.274-2.379-2.749-3.439-4.006-2.284.933-.861 5.937-5.16 3.548l1.077-4.894c-2.057.499-3.754 1.03-5.492 1.288-1.039.153-2.144-.123-3.22-.206.727-.91 1.279-2.294 2.213-2.634zM68.975 150.737c-8.169-4.81-15.127-11.454-20.312-19.366l-27.473 15.861c7.984 12.715 18.959 23.36 31.939 30.95l15.846-27.445zm-25.085 13.409c.746-3.889 1.801-7.76.101-11.986-4.424 3.447-7.451 3.988-9.779 1.801-2.073-1.944-2.267-4.19-.646-6.557 1.956-2.857 5.059-3.223 10.083-.83.206-3.817.402-7.407.597-10.997l.838-.275c.473.778 1.137 1.503 1.365 2.346.253.936.332 2.036.098 2.966-1.63 6.48.686 12.699 1.166 19.718l8.626-8.227.906.752c-1.028 1.474-1.927 3.062-3.11 4.398-2.494 2.819-5.094 5.546-7.754 8.21-.503.503-1.479.532-2.235.779-.097-.7-.383-1.439-.256-2.098zM46.716 67.504c4.97-8.692 11.998-16.054 20.424-21.421l-15.857-27.464c-13.234 8.155-24.273 19.53-32.018 33.037l27.451 15.848zm-6.07-25.936c-1.582-3.739-1.229-6.697 1.647-8.778 2.041-1.477 4.379-1.409 6.509.084 2.011 1.41 2.952 3.288 1.955 5.887-.14-.662-.23-1.34-.429-1.983-.886-2.882-3.543-4.474-6.102-3.688-2.714.832-4.209 3.852-2.98 6.715.668 1.558 1.87 2.956 3.062 4.204 2.332 2.438 4.826 4.721 7.253 7.068l-.777.89c-2.341-2.078-4.661-4.18-7.03-6.227-1.311-1.132-2.561-2.729-4.089-3.112-1.706-.427-4.115-.284-5.424.684-.97.717-1.353 3.47-.759 4.732.664 1.414 2.656 2.295 4.213 3.149l2.469.394c-2.238 1.031-4.817 1.193-6.205-.926-1.182-1.806-2.107-4.695-1.494-6.561 1.118-3.4 4.363-3.996 8.181-2.532zM151.338 131.371c-5.186 7.913-12.145 14.557-20.312 19.367l15.846 27.445c12.98-7.59 23.955-18.235 31.939-30.95l-27.473-15.862zm-10.361 23.531l.025-1.193c5.346-5.098 10.69-10.196 16.037-15.294l.993.18c-.094.935.176 2.239-.339 2.752-4.549 4.529-9.197 8.963-13.938 13.291-.55.502-1.833.195-2.778.264zm16.947 3.488c-3.307 2.382-6.102 2.078-9.32-.675l-4.428.659-.305-1.125 5.438-5.186c1.748 1.5 1.17 5.612 4.658 4.582 1.63-.481 3.882-2.434 3.943-3.805.087-1.97-1.569-4.017-2.705-6.528.701-.669 1.977-2.053 3.438-3.199.607-.476 1.61-.446 2.435-.647-.147.899-.199 1.83-.481 2.685-.156.473-.698.817-1.037 1.186 2.626 5.982 2.157 9.325-1.636 12.053zM192.922 101.5h-31.693c-.586 9.922-3.543 19.212-8.309 27.321l27.445 15.846c7.454-12.766 11.95-27.467 12.557-43.167zm-29.586 14.8l6.338-1.23-.305.591 12.006 3.751c-.232-2.792-.229-2.809-5.66-4.332-2.409-.676-4.843-1.267-7.266-1.896l.234-1.547c1.411.181 2.844.264 4.229.567 1.727.376 3.42.912 5.117 1.417 1.677.5 3.34 1.046 5.573 1.75l-.238-3.274c-4.765-1.237-9.528-2.474-14.819-3.847.768-1.152 1.156-1.931 1.279-1.891 4.238 1.368 8.45 2.815 12.666 4.252 1.033-.444 2.071-.873 3.096-1.335.521-.236 1.013-.534 1.518-.804.104.574.426 1.212.275 1.709-.661 2.19-1.502 4.328-2.19 6.511-.481 1.531-.823 3.106-1.33 5.059l-.975.115c-.178 2.018-.351 3.977-.575 6.531-5.598-1.086-10.71-2.08-16.128-3.132l2.289-6.886c-1.842-.479-3.532-.917-5.224-1.355l.09-.724zM132.86 46.083c8.426 5.368 15.454 12.729 20.424 21.421l27.45-15.849c-7.744-13.507-18.783-24.882-32.018-33.037l-15.856 27.465zm27.47 5.884c-5.938 1.721-14.348-3.167-15.932-9.998 3.081 4.173 5.701 8.047 9.996 8.708.418-2.161.203-4.698 1.367-5.916.944-.99 3.82-1.007 5.33-.323 1.348.609 2.764 2.797 2.707 4.232-.045 1.178-2.034 2.881-3.468 3.297zm2.754-7.484c-1.701-2.06-2.975-3.999-4.64-5.502-1.654-1.495-3.703-2.551-5.088-3.472-.544 2.293-.518 4.65-1.655 6.087-.717.907-3.512 1.08-4.76.421-1.478-.782-3.105-2.8-3.132-4.31-.021-1.168 2.142-3.052 3.645-3.453 6.136-1.638 14.209 3.694 15.63 10.229zM98.5 190.828v-31.672c-9.688-.234-18.822-2.719-26.904-6.96l-15.856 27.463c12.749 6.911 27.297 10.924 42.76 11.169zm-25.471-20.377c-.137.751-.24 1.512-.425 2.251-.1.4-.337.766-.379.857 4.308-2.245 8.757-4.565 13.374-6.972-.61-1.226-1.261-2.38-1.749-3.598-.152-.379.132-.933.216-1.407.521.17 1.345.195 1.508.536.568 1.183.907 2.477 1.137 3.15 3.236.328 4.726-3.387 7.809-1.118l-5.644 3.444c2.009 5.055 2.009 5.055.354 6.156l-1.865-4.646c-5.142 2.708-9.843 5.185-14.92 7.858l4.638-.05c-.512 2.187-4.006 2.928-12.452 2.649 2.233-2.877 4.235-5.555 6.366-8.128.435-.527 1.342-.665 2.032-.982zM69.709 44.533c8.535-4.869 18.341-7.742 28.791-7.995v-31.672c-16.229.257-31.448 4.665-44.64 12.217l15.849 27.45zm9.173-24.39c4.27-1.358 4.345-4.692 4.065-8.959 2.786 2.512 2.809 3.846.826 8.508 5.477 3.826 6.875 7.837 4.201 12.063-2.179 3.449-6.55 4.65-10.18 2.797-4.244-2.167-5.262-6.337-3.006-11.395-1.689-2.004-3.305-3.855-4.811-5.792-.186-.239.228-.941.524-2.011 2.485 2.649 4.056 6.166 8.381 4.789z"/></g></svg>